<?xml version="1.0" encoding="UTF-8"?>
<!DOCTYPE svg PUBLIC "-//W3C//DTD SVG 1.1//EN" "http://www.w3.org/Graphics/SVG/1.1/DTD/svg11.dtd">
<svg width="292mm" height="164mm" viewBox="0 0 29200 16400" version="1.1" xmlns="http://www.w3.org/2000/svg" xmlns:xlink="http://www.w3.org/1999/xlink" stroke-width="28.222" stroke-linejoin="round" xml:space="preserve">
 <path fill="rgb(255,255,255)" stroke="none" d="M 14592,16421 L -13,16421 -13,-13 29197,-13 29197,16421 14592,16421 Z"/>
 <path fill="none" stroke="rgb(179,179,179)" stroke-linejoin="round" d="M 13994,15453 L 2425,15453 2425,520 25562,520 25562,15453 13994,15453 Z"/>
 <path fill="none" stroke="rgb(179,179,179)" stroke-linejoin="round" d="M 25562,15452 L 2425,15452"/>
 <path fill="none" stroke="rgb(179,179,179)" stroke-linejoin="round" d="M 25562,12465 L 2425,12465"/>
 <path fill="none" stroke="rgb(179,179,179)" stroke-linejoin="round" d="M 25562,9478 L 2425,9478"/>
 <path fill="none" stroke="rgb(179,179,179)" stroke-linejoin="round" d="M 25562,6492 L 2425,6492"/>
 <path fill="none" stroke="rgb(179,179,179)" stroke-linejoin="round" d="M 25562,3505 L 2425,3505"/>
 <path fill="none" stroke="rgb(179,179,179)" stroke-linejoin="round" d="M 25562,519 L 2425,519"/>
 <path fill="none" stroke="rgb(179,179,179)" stroke-linejoin="round" d="M 2425,15602 L 2425,15452"/>
 <path fill="none" stroke="rgb(179,179,179)" stroke-linejoin="round" d="M 2425,15602 L 2425,15452"/>
 <path fill="none" stroke="rgb(179,179,179)" stroke-linejoin="round" d="M 4738,15602 L 4738,15452"/>
 <path fill="none" stroke="rgb(179,179,179)" stroke-linejoin="round" d="M 4738,15602 L 4738,15452"/>
 <path fill="none" stroke="rgb(179,179,179)" stroke-linejoin="round" d="M 7052,15602 L 7052,15452"/>
 <path fill="none" stroke="rgb(179,179,179)" stroke-linejoin="round" d="M 7052,15602 L 7052,15452"/>
 <path fill="none" stroke="rgb(179,179,179)" stroke-linejoin="round" d="M 9366,15602 L 9366,15452"/>
 <path fill="none" stroke="rgb(179,179,179)" stroke-linejoin="round" d="M 9366,15602 L 9366,15452"/>
 <path fill="none" stroke="rgb(179,179,179)" stroke-linejoin="round" d="M 11680,15602 L 11680,15452"/>
 <path fill="none" stroke="rgb(179,179,179)" stroke-linejoin="round" d="M 11680,15602 L 11680,15452"/>
 <path fill="none" stroke="rgb(179,179,179)" stroke-linejoin="round" d="M 13994,15602 L 13994,15452"/>
 <path fill="none" stroke="rgb(179,179,179)" stroke-linejoin="round" d="M 13994,15602 L 13994,15452"/>
 <path fill="none" stroke="rgb(179,179,179)" stroke-linejoin="round" d="M 16306,15602 L 16306,15452"/>
 <path fill="none" stroke="rgb(179,179,179)" stroke-linejoin="round" d="M 16306,15602 L 16306,15452"/>
 <path fill="none" stroke="rgb(179,179,179)" stroke-linejoin="round" d="M 18620,15602 L 18620,15452"/>
 <path fill="none" stroke="rgb(179,179,179)" stroke-linejoin="round" d="M 18620,15602 L 18620,15452"/>
 <path fill="none" stroke="rgb(179,179,179)" stroke-linejoin="round" d="M 20934,15602 L 20934,15452"/>
 <path fill="none" stroke="rgb(179,179,179)" stroke-linejoin="round" d="M 20934,15602 L 20934,15452"/>
 <path fill="none" stroke="rgb(179,179,179)" stroke-linejoin="round" d="M 23248,15602 L 23248,15452"/>
 <path fill="none" stroke="rgb(179,179,179)" stroke-linejoin="round" d="M 23248,15602 L 23248,15452"/>
 <path fill="none" stroke="rgb(179,179,179)" stroke-linejoin="round" d="M 25562,15602 L 25562,15452"/>
 <path fill="none" stroke="rgb(179,179,179)" stroke-linejoin="round" d="M 25562,15602 L 25562,15452"/>
 <path fill="none" stroke="rgb(179,179,179)" stroke-linejoin="round" d="M 2425,15452 L 25562,15452"/>
 <path fill="none" stroke="rgb(179,179,179)" stroke-linejoin="round" d="M 2275,15452 L 2425,15452"/>
 <path fill="none" stroke="rgb(179,179,179)" stroke-linejoin="round" d="M 2275,15452 L 2425,15452"/>
 <path fill="none" stroke="rgb(179,179,179)" stroke-linejoin="round" d="M 2275,12465 L 2425,12465"/>
 <path fill="none" stroke="rgb(179,179,179)" stroke-linejoin="round" d="M 2275,12465 L 2425,12465"/>
 <path fill="none" stroke="rgb(179,179,179)" stroke-linejoin="round" d="M 2275,9478 L 2425,9478"/>
 <path fill="none" stroke="rgb(179,179,179)" stroke-linejoin="round" d="M 2275,9478 L 2425,9478"/>
 <path fill="none" stroke="rgb(179,179,179)" stroke-linejoin="round" d="M 2275,6492 L 2425,6492"/>
 <path fill="none" stroke="rgb(179,179,179)" stroke-linejoin="round" d="M 2275,6492 L 2425,6492"/>
 <path fill="none" stroke="rgb(179,179,179)" stroke-linejoin="round" d="M 2275,3505 L 2425,3505"/>
 <path fill="none" stroke="rgb(179,179,179)" stroke-linejoin="round" d="M 2275,3505 L 2425,3505"/>
 <path fill="none" stroke="rgb(179,179,179)" stroke-linejoin="round" d="M 2275,519 L 2425,519"/>
 <path fill="none" stroke="rgb(179,179,179)" stroke-linejoin="round" d="M 2275,519 L 2425,519"/>
 <path fill="none" stroke="rgb(179,179,179)" stroke-linejoin="round" d="M 2425,15452 L 2425,519"/>
 <path fill="none" stroke="rgb(255,211,32)" stroke-width="80" stroke-linejoin="round" d="M 3581,12897 L 3616,12837 3651,12778 3686,12719 3720,12660 3755,12602 3790,12544 3824,12487 3859,12431 3894,12376 3928,12321 3963,12268 3998,12217 4033,12166 4067,12117 4102,12070 4137,12025 4171,11981 4206,11939 4241,11900 4276,11862 4310,11827 4345,11794 4380,11763 4414,11734 4449,11707 4484,11682 4518,11659 4553,11637 4588,11616 4623,11597 4657,11579 4692,11561 4727,11545 4761,11530 4796,11516 4831,11502 4866,11488 4900,11475 4935,11463 4970,11450 5004,11438 5039,11425 5074,11413 5109,11401 5143,11389 5178,11377 5213,11365 5247,11353 5282,11342 5317,11330 5351,11319 5386,11308 5421,11297 5456,11287 5490,11276 5525,11266 5560,11256 5594,11246 5629,11237 5664,11227 5699,11218 5733,11210 5768,11201 5803,11193 5837,11185 5872,11177 5907,11170 5941,11163 5976,11155 6011,11149 6046,11142 6080,11135 6115,11129 6150,11123 6184,11116 6219,11110 6254,11105 6289,11099 6323,11093 6358,11088 6393,11082 6427,11077 6462,11071 6497,11066 6531,11061 6566,11056 6601,11051 6636,11046 6670,11041 6705,11036 6740,11031 6774,11026 6809,11022 6844,11017 6879,11013 6913,11008 6948,11004 6983,11000 7017,10996 7052,10991 7087,10987 7122,10983 7156,10980 7191,10976 7226,10972 7260,10968 7295,10964 7330,10961 7364,10957 7399,10954 7434,10950 7469,10947 7503,10944 7538,10940 7573,10937 7607,10934 7642,10931 7677,10928 7712,10925 7746,10921 7781,10918 7816,10916 7850,10913 7885,10910 7920,10907 7954,10904 7989,10901 8024,10899 8059,10896 8093,10893 8128,10891 8163,10888 8197,10885 8232,10883 8267,10880 8302,10878 8336,10875 8371,10873 8406,10871 8440,10868 8475,10866 8510,10864 8545,10861 8579,10859 8614,10857 8649,10855 8683,10852 8718,10850 8753,10848 8787,10846 8822,10844 8857,10842 8892,10840 8926,10838 8961,10836 8996,10834 9030,10832 9065,10830 9100,10828 9135,10826 9169,10824 9204,10822 9239,10821 9273,10819 9308,10817 9343,10815 9377,10814 9412,10812 9447,10810 9482,10808 9516,10807 9551,10805 9586,10803 9620,10802 9655,10800 9690,10799 9725,10797 9759,10795 9794,10794 9829,10792 9863,10791 9898,10789 9933,10788 9967,10786 10002,10785 10037,10783 10072,10782 10106,10780 10141,10779 10176,10778 10210,10776 10245,10775 10280,10774 10315,10772 10349,10771 10384,10770 10419,10768 10453,10767 10488,10766 10523,10764 10558,10763 10592,10762 10627,10761 10662,10759 10696,10758 10731,10757 10766,10756 10800,10754 10835,10753 10870,10752 10905,10751 10939,10750 10974,10749 11009,10748 11043,10746 11078,10745 11113,10744 11148,10743 11182,10742 11217,10741 11252,10740 11286,10739 11321,10738 11356,10737 11390,10736 11425,10735 11460,10734 11495,10733 11529,10732 11564,10731 11599,10730 11633,10729 11668,10728 11703,10727 11738,10726 11772,10725 11807,10724 11842,10723 11876,10722 11911,10721 11946,10720 11980,10719 12015,10718 12050,10717 12085,10716 12119,10716 12154,10715 12189,10714 12223,10713 12258,10712 12293,10711 12328,10710 12362,10709 12397,10709 12432,10708 12466,10707 12501,10706 12536,10705 12571,10705 12605,10704 12640,10703 12675,10702 12709,10701 12744,10701 12779,10700 12813,10699 12848,10698 12883,10698 12918,10697 12952,10696 12987,10695 13022,10695 13056,10694 13091,10693 13126,10692 13161,10692 13195,10691 13230,10690 13265,10690 13299,10689 13334,10688 13369,10687 13403,10687 13438,10686 13473,10685 13508,10685 13542,10684 13577,10683 13612,10683 13646,10682 13681,10681 13716,10681 13751,10680 13785,10679 13820,10679 13855,10678 13889,10678 13924,10677 13959,10676 13994,10676 14028,10675 14063,10674 14098,10674 14132,10673 14167,10673 14202,10672 14236,10671 14271,10671 14306,10670 14341,10670 14375,10669 14410,10669 14445,10668 14479,10667 14514,10667 14549,10666 14584,10666 14617,10665 14652,10665 14687,10664 14721,10664 14756,10663 14791,10662 14825,10662 14860,10661 14895,10661 14930,10660 14964,10660 14999,10659 15034,10659 15068,10658 15103,10658 15138,10657 15173,10657 15207,10656 15242,10656 15277,10655 15311,10655 15346,10654 15381,10654 15415,10653 15450,10653 15485,10652 15520,10652 15554,10651 15589,10651 15624,10650 15658,10650 15693,10649 15728,10649 15763,10649 15797,10648 15832,10648 15867,10647 15901,10647 15936,10646 15971,10646 16006,10645 16040,10645 16075,10644 16110,10644 16144,10644 16179,10643 16214,10643 16248,10642 16283,10642 16318,10641 16353,10641 16387,10641 16422,10640 16457,10640 16491,10639 16526,10639 16561,10638 16596,10638 16630,10638 16665,10637 16700,10637 16734,10636 16769,10636 16804,10636 16838,10635 16873,10635 16908,10634 16943,10634 16977,10634 17012,10633 17047,10633 17081,10633 17116,10632 17151,10632 17186,10631 17220,10631 17255,10631 17290,10630 17324,10630 17359,10630 17394,10629 17428,10629 17463,10628 17498,10628 17533,10628 17567,10627 17602,10627 17637,10627 17671,10626 17706,10626 17741,10626 17776,10625 17810,10625 17845,10625 17880,10624 17914,10624 17949,10624 17984,10623 18019,10623 18053,10623 18088,10622 18123,10622 18157,10622 18192,10621 18227,10621 18261,10621 18296,10620 18331,10620 18366,10620 18400,10619 18435,10619 18470,10619 18504,10618 18539,10618 18574,10618 18609,10617 18643,10617 18678,10617 18713,10616 18747,10616 18782,10616 18817,10616 18851,10615 18886,10615 18921,10615 18956,10614 18990,10614 19025,10614 19060,10613 19094,10613 19129,10613 19164,10613 19199,10612 19233,10612 19268,10612 19303,10611 19337,10611 19372,10611 19407,10611 19441,10610 19476,10610 19511,10610 19546,10609 19580,10609 19615,10609 19650,10609 19684,10608 19719,10608 19754,10608 19789,10608 19823,10607 19858,10607 19893,10607 19927,10606 19962,10606 19997,10606 20032,10606 20066,10605 20101,10605 20136,10605 20170,10605 20205,10604 20240,10604 20274,10604 20309,10604 20344,10603 20379,10603 20413,10603 20448,10603 20483,10602 20517,10602 20552,10602 20587,10602 20622,10601 20656,10601 20691,10601 20726,10601 20760,10600 20795,10600 20830,10600 20864,10600 20899,10599 20934,10599 20969,10599 21003,10599 21038,10598 21073,10598 21107,10598 21142,10598 21177,10597 21212,10597 21246,10597 21281,10597 21316,10597 21350,10596 21385,10596 21420,10596 21455,10596 21489,10595 21524,10595 21559,10595 21593,10595 21628,10595 21663,10594 21697,10594 21732,10594 21767,10594 21802,10593 21836,10593 21871,10593 21906,10593 21940,10593 21975,10592 22010,10592 22045,10592 22079,10592 22114,10592 22149,10591 22183,10591 22218,10591 22253,10591 22287,10591 22322,10590 22357,10590 22392,10590 22426,10590 22461,10589 22496,10589 22530,10589 22565,10589 22600,10589 22635,10588 22669,10588 22704,10588 22739,10588 22773,10588 22808,10587 22843,10587 22877,10587 22912,10587 22947,10587 22982,10587 23016,10586 23051,10586 23086,10586 23120,10586 23155,10586 23190,10585 23225,10585 23259,10585 23294,10585 23329,10585 23363,10584 23398,10584 23433,10584 23468,10584 23502,10584 23537,10584 23572,10583 23606,10583 23641,10583 23676,10583 23710,10583 23745,10582 23780,10582 23815,10582 23849,10582 23884,10582 23919,10582 23953,10581 23988,10581 24023,10581 24058,10581 24092,10581 24127,10581 24162,10580 24196,10580 24231,10580 24266,10580 24300,10580 24335,10579 24370,10579 24405,10579 24439,10579 24474,10579 24509,10579 24543,10578 24578,10578 24613,10578 24648,10578 24682,10578 24717,10578 24752,10577 24786,10577 24821,10577 24856,10577 24890,10577 24925,10577 24960,10577 24995,10576 25029,10576 25064,10576 25099,10576"/>
 <path fill="none" stroke="rgb(255,66,14)" stroke-width="80" stroke-linejoin="round" d="M 3003,3672 L 3016,3873 3028,4075 3041,4275 3055,4475 3068,4673 3082,4870 3096,5064 3111,5256 3126,5446 3142,5632 3158,5815 3175,5994 3194,6169 3213,6340 3233,6506 3254,6666 3276,6821 3299,6971 3324,7114 3350,7251 3377,7381 3406,7504 3436,7621 3467,7732 3499,7837 3532,7937 3566,8031 3600,8119 3636,8203 3672,8281 3708,8355 3745,8425 3782,8491 3819,8553 3857,8612 3895,8667 3932,8719 3970,8768 4007,8814 4044,8858 4081,8900 4117,8939 4153,8977 4189,9012 4224,9046 4259,9078 4294,9108 4329,9136 4364,9163 4398,9189 4432,9214 4466,9237 4500,9259 4534,9280 4568,9300 4602,9319 4636,9338 4670,9356 4704,9373 4738,9390 4772,9407 4807,9423 4841,9439 4876,9454 4910,9469 4945,9484 4979,9499 5014,9513 5049,9527 5084,9540 5118,9553 5153,9566 5188,9579 5223,9591 5258,9603 5293,9614 5328,9626 5363,9637 5398,9647 5432,9658 5467,9668 5502,9678 5537,9687 5572,9697 5606,9706 5641,9715 5676,9724 5711,9732 5745,9740 5780,9748 5815,9756 5849,9764 5884,9771 5919,9778 5953,9786 5988,9793 6023,9799 6057,9806 6092,9813 6127,9819 6161,9825 6196,9832 6231,9838 6265,9844 6300,9850 6335,9856 6369,9861 6404,9867 6439,9872 6474,9878 6508,9883 6543,9888 6578,9893 6612,9898 6647,9903 6682,9908 6717,9913 6751,9918 6786,9922 6821,9927 6855,9932 6890,9936 6925,9940 6960,9945 6994,9949 7029,9953 7064,9957 7098,9961 7133,9965 7168,9969 7203,9973 7237,9976 7272,9980 7307,9984 7341,9987 7376,9991 7411,9994 7445,9998 7480,10001 7515,10004 7550,10008 7584,10011 7619,10014 7654,10017 7688,10020 7723,10023 7758,10027 7793,10030 7827,10032 7862,10035 7897,10038 7931,10041 7966,10044 8001,10047 8035,10049 8070,10052 8105,10055 8140,10057 8174,10060 8209,10063 8244,10065 8278,10068 8313,10070 8348,10072 8383,10075 8417,10077 8452,10080 8487,10082 8521,10084 8556,10087 8591,10089 8625,10091 8660,10093 8695,10095 8730,10098 8764,10100 8799,10102 8834,10104 8868,10106 8903,10108 8938,10110 8973,10112 9007,10114 9042,10116 9077,10118 9111,10120 9146,10121 9181,10123 9216,10125 9250,10127 9285,10129 9320,10131 9354,10132 9389,10134 9424,10136 9458,10138 9493,10139 9528,10141 9563,10143 9597,10144 9632,10146 9667,10147 9701,10149 9736,10151 9771,10152 9806,10154 9840,10155 9875,10157 9910,10158 9944,10160 9979,10161 10014,10163 10048,10164 10083,10166 10118,10167 10153,10168 10187,10170 10222,10171 10257,10173 10291,10174 10326,10175 10361,10177 10396,10178 10430,10179 10465,10181 10500,10182 10534,10183 10569,10184 10604,10186 10638,10187 10673,10188 10708,10189 10743,10191 10777,10192 10812,10193 10847,10194 10881,10195 10916,10196 10951,10198 10986,10199 11020,10200 11055,10201 11090,10202 11124,10203 11159,10204 11194,10205 11229,10206 11263,10208 11298,10209 11333,10210 11367,10211 11402,10212 11437,10213 11471,10214 11506,10215 11541,10216 11576,10217 11610,10218 11645,10219 11680,10220 11714,10221 11749,10222 11784,10223 11819,10224 11853,10225 11888,10225 11923,10226 11957,10227 11992,10228 12027,10229 12061,10230 12096,10231 12131,10232 12166,10233 12200,10234 12235,10234 12270,10235 12304,10236 12339,10237 12374,10238 12409,10239 12443,10239 12478,10240 12513,10241 12547,10242 12582,10243 12617,10244 12651,10244 12686,10245 12721,10246 12756,10247 12790,10247 12825,10248 12860,10249 12894,10250 12929,10250 12964,10251 12999,10252 13033,10253 13068,10253 13103,10254 13137,10255 13172,10256 13207,10256 13242,10257 13276,10258 13311,10258 13346,10259 13380,10260 13415,10260 13450,10261 13484,10262 13519,10263 13554,10263 13589,10264 13623,10265 13658,10265 13693,10266 13727,10266 13762,10267 13797,10268 13832,10268 13866,10269 13901,10270 13936,10270 13970,10271 14005,10272 14040,10272 14074,10273 14109,10273 14144,10274 14179,10275 14213,10275 14248,10276 14283,10276 14317,10277 14352,10277 14387,10278 14422,10279 14456,10279 14491,10280 14526,10280 14560,10281 14594,10281 14629,10282 14664,10283 14698,10283 14733,10284 14768,10284 14802,10285 14837,10285 14872,10286 14906,10286 14941,10287 14976,10287 15011,10288 15045,10288 15080,10289 15115,10289 15149,10290 15184,10290 15219,10291 15254,10291 15288,10292 15323,10292 15358,10293 15392,10293 15427,10294 15462,10294 15496,10295 15531,10295 15566,10296 15601,10296 15635,10297 15670,10297 15705,10298 15739,10298 15774,10299 15809,10299 15844,10300 15878,10300 15913,10300 15948,10301 15982,10301 16017,10302 16052,10302 16086,10303 16121,10303 16156,10304 16191,10304 16225,10304 16260,10305 16295,10305 16329,10306 16364,10306 16399,10307 16434,10307 16468,10307 16503,10308 16538,10308 16572,10309 16607,10309 16642,10309 16677,10310 16711,10310 16746,10311 16781,10311 16815,10311 16850,10312 16885,10312 16919,10313 16954,10313 16989,10313 17024,10314 17058,10314 17093,10315 17128,10315 17162,10315 17197,10316 17232,10316 17267,10316 17301,10317 17336,10317 17371,10318 17405,10318 17440,10318 17475,10319 17509,10319 17544,10319 17579,10320 17614,10320 17648,10320 17683,10321 17718,10321 17752,10321 17787,10322 17822,10322 17857,10323 17891,10323 17926,10323 17961,10324 17995,10324 18030,10324 18065,10325 18099,10325 18134,10325 18169,10326 18204,10326 18238,10326 18273,10327 18308,10327 18342,10327 18377,10328 18412,10328 18447,10328 18481,10328 18516,10329 18551,10329 18585,10329 18620,10330 18655,10330 18690,10330 18724,10331 18759,10331 18794,10331 18828,10332 18863,10332 18898,10332 18932,10332 18967,10333 19002,10333 19037,10333 19071,10334 19106,10334 19141,10334 19175,10335 19210,10335 19245,10335 19280,10335 19314,10336 19349,10336 19384,10336 19418,10337 19453,10337 19488,10337 19522,10337 19557,10338 19592,10338 19627,10338 19661,10338 19696,10339 19731,10339 19765,10339 19800,10340 19835,10340 19870,10340 19904,10340 19939,10341 19974,10341 20008,10341 20043,10341 20078,10342 20113,10342 20147,10342 20182,10342 20217,10343 20251,10343 20286,10343 20321,10344 20355,10344 20390,10344 20425,10344 20460,10345 20494,10345 20529,10345 20564,10345 20598,10346 20633,10346 20668,10346 20703,10346 20737,10346 20772,10347 20807,10347 20841,10347 20876,10347 20911,10348 20945,10348 20980,10348 21015,10348 21050,10349 21084,10349 21119,10349 21154,10349 21188,10350 21223,10350 21258,10350 21293,10350 21327,10350 21362,10351 21397,10351 21431,10351 21466,10351 21501,10352 21535,10352 21570,10352 21605,10352 21640,10353 21674,10353 21709,10353 21744,10353 21778,10353 21813,10354 21848,10354 21883,10354 21917,10354 21952,10354 21987,10355 22021,10355 22056,10355 22091,10355 22126,10356 22160,10356 22195,10356 22230,10356 22264,10356 22299,10357 22334,10357 22368,10357 22403,10357 22438,10357 22473,10358 22507,10358 22542,10358 22577,10358 22611,10358 22646,10359 22681,10359 22716,10359 22750,10359 22785,10359 22820,10360 22854,10360 22889,10360 22924,10360 22958,10360 22993,10361 23028,10361 23063,10361 23097,10361 23132,10361 23167,10362 23201,10362 23236,10362 23271,10362 23306,10362 23340,10362 23375,10363 23410,10363 23444,10363 23479,10363 23514,10363 23548,10364 23583,10364 23618,10364 23653,10364 23687,10364 23722,10364 23757,10365 23791,10365 23826,10365 23861,10365 23896,10365 23930,10366 23965,10366 24000,10366 24034,10366 24069,10366 24104,10366 24139,10367 24173,10367 24208,10367 24243,10367 24277,10367 24312,10367 24347,10368 24381,10368 24416,10368 24451,10368 24486,10368 24520,10368 24555,10369 24590,10369 24624,10369 24659,10369 24694,10369 24729,10369 24763,10370 24798,10370 24833,10370 24867,10370 24902,10370 24937,10370 24971,10371 25006,10371 25041,10371 25076,10371 25110,10371 25145,10371 25180,10371 25214,10372 25249,10372 25284,10372 25319,10372 25353,10372 25388,10372 25423,10373 25457,10373 25492,10373 25527,10373 25562,10373"/>
 <path fill="none" stroke="rgb(0,69,134)" stroke-width="80" stroke-linejoin="round" d="M 3119,8573 L 3123,8408 3127,8242 3131,8079 3136,7915 3140,7753 3145,7592 3150,7433 3155,7275 3160,7120 3165,6968 3170,6819 3176,6673 3182,6530 3189,6391 3195,6256 3202,6126 3210,6000 3217,5879 3226,5763 3234,5653 3243,5549 3253,5450 3263,5357 3273,5268 3284,5185 3295,5105 3306,5030 3318,4959 3330,4892 3342,4828 3354,4767 3366,4709 3378,4654 3391,4601 3403,4549 3416,4500 3428,4452 3441,4406 3453,4360 3466,4316 3478,4271 3490,4227 3502,4184 3514,4141 3526,4099 3537,4057 3549,4015 3561,3975 3572,3935 3584,3895 3595,3856 3606,3818 3618,3780 3629,3743 3640,3707 3652,3672 3663,3637 3674,3603 3686,3570 3697,3537 3708,3506 3720,3475 3731,3445 3743,3415 3754,3387 3766,3359 3777,3332 3789,3305 3801,3279 3812,3254 3824,3229 3835,3204 3847,3181 3859,3157 3870,3134 3882,3112 3894,3090 3905,3068 3917,3047 3928,3026 3940,3005 3952,2985 3963,2964 3975,2945 3986,2925 3998,2906 4010,2887 4021,2868 4033,2849 4044,2831 4056,2813 4067,2796 4079,2778 4091,2761 4102,2744 4114,2727 4125,2711 4137,2695 4148,2679 4160,2663 4171,2648 4183,2633 4195,2618 4206,2603 4218,2588 4229,2574 4241,2560 4252,2546 4264,2532 4275,2519 4287,2505 4299,2492 4310,2479 4322,2466 4333,2454 4345,2441 4357,2429 4368,2417 4380,2405 4391,2393 4403,2381 4414,2370 4426,2358 4438,2347 4449,2336 4461,2325 4472,2314 4484,2303 4495,2292 4507,2282 4518,2271 4530,2261 4542,2251 4553,2241 4565,2231 4576,2221 4588,2212 4599,2202 4611,2192 4623,2183 4634,2174 4646,2165 4657,2156 4669,2147 4680,2138 4692,2129 4704,2120 4715,2112 4727,2103 4738,2095 4750,2087 4761,2078 4773,2070 4785,2062 4796,2054 4808,2046 4819,2039 4831,2031 4842,2023 4854,2016 4866,2008 4877,2001 4889,1994 4900,1986 4912,1979 4923,1972 4935,1965 4947,1958 4958,1951 4970,1944 4981,1937 4993,1931 5004,1924 5016,1917 5028,1911 5039,1904 5051,1898 5062,1892 5074,1885 5085,1879 5097,1873 5109,1867 5120,1861 5132,1855 5143,1849 5155,1843 5166,1837 5178,1831 5189,1825 5201,1820 5213,1814 5224,1808 5236,1803 5247,1797 5259,1792 5270,1786 5282,1781 5294,1776 5305,1770 5317,1765 5328,1760 5340,1755 5351,1750 5363,1745 5375,1740 5386,1735 5398,1730 5409,1725 5421,1720 5432,1715 5444,1710 5456,1706 5467,1701 5479,1696 5490,1692 5502,1687 5513,1682 5525,1678 5537,1673 5548,1669 5560,1665 5571,1660 5583,1656 5594,1652 5606,1647 5618,1643 5629,1639 5641,1635 5652,1630 5664,1626 5675,1622 5687,1618 5699,1614 5710,1610 5722,1606 5733,1602 5745,1598 5756,1594 5768,1590 5780,1587 5791,1583 5803,1579 5814,1575 5826,1572 5837,1568 5849,1564 5860,1560 5872,1557 5884,1553 5895,1550 5907,1546 5918,1543 5930,1539 5941,1536 5953,1532 5965,1529 5976,1525 5988,1522 5999,1519 6011,1515 6022,1512 6034,1509 6046,1505 6057,1502 6069,1499 6080,1496 6092,1492 6103,1489 6115,1486 6127,1483 6138,1480 6150,1477 6161,1474 6173,1471 6184,1468 6196,1465 6208,1462 6219,1459 6231,1456 6242,1453 6254,1450 6265,1447 6277,1444 6289,1441 6300,1438 6312,1436 6323,1433 6335,1430 6346,1427 6358,1424 6370,1422 6381,1419 6393,1416 6404,1414 6416,1411 6427,1408 6439,1406 6451,1403 6462,1400 6474,1398 6485,1395 6497,1393 6508,1390 6520,1388 6531,1385 6543,1382 6555,1380 6566,1377 6578,1375 6589,1373 6601,1370 6612,1368 6624,1365 6636,1363 6647,1361 6659,1358 6670,1356 6682,1353 6693,1351 6705,1349 6717,1347 6728,1344 6740,1342 6751,1340 6763,1337 6774,1335 6786,1333 6798,1331 6809,1329 6821,1326 6832,1324 6844,1322 6855,1320 6867,1318 6879,1316 6890,1313 6902,1311 6913,1309 6925,1307 6936,1305 6948,1303 6960,1301 6971,1299 6983,1297 6994,1295 7006,1293 7017,1291 7029,1289 7041,1287 7052,1285 7064,1283 7075,1281 7087,1279 7098,1277 7110,1275 7122,1273 7133,1271 7145,1269 7156,1268 7168,1266 7179,1264 7191,1262 7202,1260 7214,1258 7226,1256 7237,1255 7249,1253 7260,1251 7272,1249 7283,1247 7295,1246 7307,1244 7318,1242 7330,1240 7341,1239 7353,1237 7364,1235 7376,1233 7388,1232 7399,1230 7411,1228 7422,1227 7434,1225 7445,1223 7457,1222 7469,1220 7480,1218 7492,1217 7503,1215 7515,1213 7526,1212 7538,1210 7550,1209 7561,1207 7573,1205 7584,1204 7596,1202 7607,1201 7619,1199 7631,1198 7642,1196 7654,1195 7665,1193 7677,1192 7688,1190 7700,1189 7712,1187 7723,1186 7735,1184 7746,1183 7758,1181 7769,1180 7781,1178 7793,1177 7804,1175 7816,1174 7827,1172 7839,1171 7850,1170 7862,1168 7873,1167 7885,1165 7897,1164 7908,1163 7920,1161 7931,1160 7943,1158 7954,1157 7966,1156 7978,1154 7989,1153 8001,1152 8012,1150 8024,1149 8035,1148 8047,1146 8059,1145 8070,1144 8082,1142 8093,1141 8105,1140 8116,1138 8128,1137 8140,1136 8151,1135 8163,1133 8174,1132 8186,1131 8197,1130 8209,1128 8221,1127 8232,1126 8244,1125 8255,1123 8267,1122 8278,1121 8290,1120 8302,1119 8313,1117 8325,1116 8336,1115 8348,1114 8359,1113 8371,1111 8383,1110 8394,1109 8406,1108 8417,1107 8429,1106 8440,1104 8452,1103 8464,1102 8475,1101 8487,1100 8498,1099 8510,1098 8521,1096 8533,1095 8545,1094 8556,1093 8568,1092 8579,1091 8591,1090 8602,1089 8614,1088 8625,1087 8637,1085 8649,1084 8660,1083 8672,1082 8683,1081 8695,1080 8706,1079 8718,1078 8730,1077 8741,1076 8753,1075 8764,1074 8776,1073 8787,1072 8799,1071 8811,1070 8822,1069 8834,1068 8845,1067 8857,1066 8868,1065 8880,1064 8892,1063 8903,1062 8915,1061 8926,1060 8938,1059 8949,1058 8961,1057 8973,1056 8984,1055 8996,1054 9007,1053 9019,1052 9030,1051 9042,1050 9054,1049 9065,1048 9077,1047 9088,1046 9100,1045 9111,1045 9123,1044 9135,1043 9146,1042 9158,1041 9169,1040 9181,1039 9192,1038 9204,1037 9216,1036 9227,1035 9239,1035 9250,1034 9262,1033 9273,1032 9285,1031 9296,1030 9308,1029 9320,1028 9331,1027 9343,1027 9354,1026 9366,1025 9377,1024 9389,1023 9401,1022 9412,1021 9424,1021 9435,1020 9447,1019 9458,1018 9470,1017 9482,1016 9493,1016 9505,1015 9516,1014 9528,1013 9539,1012 9551,1012 9563,1011 9574,1010 9586,1009 9597,1008 9609,1007 9620,1007 9632,1006 9644,1005 9655,1004 9667,1003 9678,1003 9690,1002 9701,1001 9713,1000 9725,1000 9736,999 9748,998 9759,997 9771,997 9782,996 9794,995 9806,994 9817,993 9829,993 9840,992 9852,991 9863,990 9875,990 9887,989 9898,988 9910,988 9921,987 9933,986 9944,985 9956,985 9967,984 9979,983 9991,982 10002,982 10014,981 10025,980 10037,980 10048,979 10060,978 10072,977 10083,977 10095,976 10106,975 10118,975 10129,974 10141,973 10153,973 10164,972 10176,971 10187,970 10199,970 10210,969 10222,968 10234,968 10245,967 10257,966 10268,966 10280,965 10291,964 10303,964 10315,963 10326,962 10338,962 10349,961 10361,960 10372,960 10384,959 10396,958 10407,958 10419,957 10430,957 10442,956 10453,955 10465,955 10477,954 10488,953 10500,953 10511,952 10523,951 10534,951 10546,950 10558,950 10569,949 10581,948 10592,948 10604,947 10615,946 10627,946 10638,945 10650,945 10662,944 10673,943 10685,943 10696,942 10708,942 10719,941 10731,940 10743,940 10754,939 10766,939 10777,938 10789,937 10800,937 10812,936 10824,936 10835,935 10847,935 10858,934 10870,933 10881,933 10893,932 10905,932 10916,931 10928,931 10939,930 10951,929 10962,929 10974,928 10986,928 10997,927 11009,927 11020,926 11032,925 11043,925 11055,924 11067,924 11078,923 11090,923 11101,922 11113,922 11124,921 11136,921 11148,920 11159,919 11171,919 11182,918 11194,918 11205,917 11217,917 11229,916 11240,916 11252,915 11263,915 11275,914 11286,914 11298,913 11309,913 11321,912 11333,912 11344,911 11356,911 11367,910 11379,910 11390,909 11402,908 11414,908 11425,907 11437,907 11448,906 11460,906 11471,905 11483,905 11495,904 11506,904 11518,903 11529,903 11541,902 11552,902 11564,901 11576,901 11587,901 11599,900 11610,900 11622,899 11633,899 11645,898 11657,898 11668,897 11680,897 11691,896 11703,896 11714,895 11726,895 11738,894 11749,894 11761,893 11772,893 11784,892 11795,892 11807,891 11819,891 11830,891 11842,890 11853,890 11865,889 11876,889 11888,888 11900,888 11911,887 11923,887 11934,886 11946,886 11957,885 11969,885 11980,885 11992,884 12004,884 12015,883 12027,883 12038,882 12050,882 12061,881 12073,881 12085,881 12096,880 12108,880 12119,879 12131,879 12142,878 12154,878 12166,878 12177,877 12189,877 12200,876 12212,876 12223,875 12235,875 12247,875 12258,874 12270,874 12281,873 12293,873 12304,872 12316,872 12328,872 12339,871 12351,871 12362,870 12374,870 12385,870 12397,869 12409,869 12420,868 12432,868 12443,867 12455,867 12466,867 12478,866 12490,866 12501,865 12513,865 12524,865 12536,864 12547,864 12559,863 12571,863 12582,863 12594,862 12605,862 12617,861 12628,861 12640,861 12651,860 12663,860 12675,860 12686,859 12698,859 12709,858 12721,858 12732,858 12744,857 12756,857 12767,856 12779,856 12790,856 12802,855 12813,855 12825,855 12837,854 12848,854 12860,853 12871,853 12883,853 12894,852 12906,852 12918,852 12929,851 12941,851 12952,850 12964,850 12975,850 12987,849 12999,849 13010,849 13022,848 13033,848 13045,847 13056,847 13068,847 13080,846 13091,846 13103,846 13114,845 13126,845 13137,845 13149,844 13161,844 13172,844 13184,843 13195,843 13207,842 13218,842 13230,842 13242,841 13253,841 13265,841 13276,840 13288,840 13299,840 13311,839 13322,839 13334,839 13346,838 13357,838 13369,838 13380,837 13392,837 13403,837 13415,836 13427,836 13438,836 13450,835 13461,835 13473,835 13484,834 13496,834 13508,834 13519,833 13531,833 13542,833 13554,832 13565,832 13577,832 13589,831 13600,831 13612,831 13623,830 13635,830 13646,830 13658,829 13670,829 13681,829 13693,828 13704,828 13716,828 13727,827 13739,827 13751,827 13762,826 13774,826 13785,826 13797,826 13808,825 13820,825 13832,825 13843,824 13855,824 13866,824 13878,823 13889,823 13901,823 13913,822 13924,822 13936,822 13947,821 13959,821 13970,821 13982,821 13994,820 14005,820 14017,820 14028,819 14040,819 14051,819 14063,818 14074,818 14086,818 14098,818 14109,817 14121,817 14132,817 14144,816 14155,816 14167,816 14179,815 14190,815 14202,815 14213,815 14225,814 14236,814 14248,814 14260,813 14271,813 14283,813 14294,813 14306,812 14317,812 14329,812 14341,811 14352,811 14364,811 14375,810 14387,810 14398,810 14410,810 14422,809 14433,809 14445,809 14456,809 14468,808 14479,808 14491,808 14503,807 14514,807 14526,807 14537,807 14549,806 14560,806 14572,806 14584,805 14594,805 14606,805 14617,805 14629,804 14640,804 14652,804 14664,804 14675,803 14687,803 14698,803 14710,802 14721,802 14733,802 14744,802 14756,801 14768,801 14779,801 14791,801 14802,800 14814,800 14825,800 14837,800 14849,799 14860,799 14872,799 14883,798 14895,798 14906,798 14918,798 14930,797 14941,797 14953,797 14964,797 14976,796 14987,796 14999,796 15011,796 15022,795 15034,795 15045,795 15057,795 15068,794 15080,794 15092,794 15103,794 15115,793 15126,793 15138,793 15149,793 15161,792 15173,792 15184,792 15196,792 15207,791 15219,791 15230,791 15242,791 15254,790 15265,790 15277,790 15288,790 15300,789 15311,789 15323,789 15335,789 15346,788 15358,788 15369,788 15381,788 15392,787 15404,787 15415,787 15427,787 15439,786 15450,786 15462,786 15473,786 15485,785 15496,785 15508,785 15520,785 15531,784 15543,784 15554,784 15566,784 15577,784 15589,783 15601,783 15612,783 15624,783 15635,782 15647,782 15658,782 15670,782 15682,781 15693,781 15705,781 15716,781 15728,781 15739,780 15751,780 15763,780 15774,780 15786,779 15797,779 15809,779 15820,779 15832,778 15844,778 15855,778 15867,778 15878,778 15890,777 15901,777 15913,777 15925,777 15936,776 15948,776 15959,776 15971,776 15982,776 15994,775 16006,775 16017,775 16029,775 16040,774 16052,774 16063,774 16075,774 16086,774 16098,773 16110,773 16121,773 16133,773 16144,772 16156,772 16167,772 16179,772 16191,772 16202,771 16214,771 16225,771 16237,771 16248,771 16260,770 16272,770 16283,770 16295,770 16306,770 16318,769 16329,769 16341,769 16353,769 16364,768 16376,768 16387,768 16399,768 16410,768 16422,767 16434,767 16445,767 16457,767 16468,767 16480,766 16491,766 16503,766 16515,766 16526,766 16538,765 16549,765 16561,765 16572,765 16584,765 16596,764 16607,764 16619,764 16630,764 16642,764 16653,763 16665,763 16677,763 16688,763 16700,763 16711,762 16723,762 16734,762 16746,762 16757,762 16769,761 16781,761 16792,761 16804,761 16815,761 16827,760 16838,760 16850,760 16862,760 16873,760 16885,759 16896,759 16908,759 16919,759 16931,759 16943,758 16954,758 16966,758 16977,758 16989,758 17000,757 17012,757 17024,757 17035,757 17047,757 17058,757 17070,756 17081,756 17093,756 17105,756 17116,756 17128,755 17139,755 17151,755 17162,755 17174,755 17186,754 17197,754 17209,754 17220,754 17232,754 17243,754 17255,753 17267,753 17278,753 17290,753 17301,753 17313,752 17324,752 17336,752 17348,752 17359,752 17371,751 17382,751 17394,751 17405,751 17417,751 17428,751 17440,750 17452,750 17463,750 17475,750 17486,750 17498,750 17509,749 17521,749 17533,749 17544,749 17556,749 17567,748 17579,748 17590,748 17602,748 17614,748 17625,748 17637,747 17648,747 17660,747 17671,747 17683,747 17695,747 17706,746 17718,746 17729,746 17741,746 17752,746 17764,745 17776,745 17787,745 17799,745 17810,745 17822,745 17833,744 17845,744 17857,744 17868,744 17880,744 17891,744 17903,743 17914,743 17926,743 17938,743 17949,743 17961,743 17972,742 17984,742 17995,742 18007,742 18019,742 18030,742 18042,741 18053,741 18065,741 18076,741 18088,741 18099,741 18111,740 18123,740 18134,740 18146,740 18157,740 18169,740 18180,739 18192,739 18204,739 18215,739 18227,739 18238,739 18250,738 18261,738 18273,738 18285,738 18296,738 18308,738 18319,737 18331,737 18342,737 18354,737 18366,737 18377,737 18389,737 18400,736 18412,736 18423,736 18435,736 18447,736 18458,736 18470,735 18481,735 18493,735 18504,735 18516,735 18528,735 18539,734 18551,734 18562,734 18574,734 18585,734 18597,734 18609,734 18620,733 18632,733 18643,733 18655,733 18666,733 18678,733 18690,732 18701,732 18713,732 18724,732 18736,732 18747,732 18759,732 18770,731 18782,731 18794,731 18805,731 18817,731 18828,731 18840,730 18851,730 18863,730 18875,730 18886,730 18898,730 18909,730 18921,729 18932,729 18944,729 18956,729 18967,729 18979,729 18990,729 19002,728 19013,728 19025,728 19037,728 19048,728 19060,728 19071,728 19083,727 19094,727 19106,727 19118,727 19129,727 19141,727 19152,727 19164,726 19175,726 19187,726 19199,726 19210,726 19222,726 19233,725 19245,725 19256,725 19268,725 19280,725 19291,725 19303,725 19314,724 19326,724 19337,724 19349,724 19361,724 19372,724 19384,724 19395,724 19407,723 19418,723 19430,723 19441,723 19453,723 19465,723 19476,723 19488,722 19499,722 19511,722 19522,722 19534,722 19546,722 19557,722 19569,721 19580,721 19592,721 19603,721 19615,721 19627,721 19638,721 19650,720 19661,720 19673,720 19684,720 19696,720 19708,720 19719,720 19731,720 19742,719 19754,719 19765,719 19777,719 19789,719 19800,719 19812,719 19823,718 19835,718 19846,718 19858,718 19870,718 19881,718 19893,718 19904,717 19916,717 19927,717 19939,717 19951,717 19962,717 19974,717 19985,717 19997,716 20008,716 20020,716 20032,716 20043,716 20055,716 20066,716 20078,716 20089,715 20101,715 20113,715 20124,715 20136,715 20147,715 20159,715 20170,714 20182,714 20193,714 20205,714 20217,714 20228,714 20240,714 20251,714 20263,713 20274,713 20286,713 20298,713 20309,713 20321,713 20332,713 20344,713 20355,712 20367,712 20379,712 20390,712 20402,712 20413,712 20425,712 20436,712 20448,711 20460,711 20471,711 20483,711 20494,711 20506,711 20517,711 20529,711 20541,710 20552,710 20564,710 20575,710 20587,710 20598,710 20610,710 20622,710 20633,709 20645,709 20656,709 20668,709 20679,709 20691,709 20703,709 20714,709 20726,709 20737,708 20749,708 20760,708 20772,708 20784,708 20795,708 20807,708 20818,708 20830,707 20841,707 20853,707 20864,707 20876,707 20888,707 20899,707 20911,707 20922,706 20934,706 20945,706 20957,706 20969,706 20980,706 20992,706 21003,706 21015,706 21026,705 21038,705 21050,705 21061,705 21073,705 21084,705 21096,705 21107,705 21119,704 21131,704 21142,704 21154,704 21165,704 21177,704 21188,704 21200,704 21212,704 21223,703 21235,703 21246,703 21258,703 21269,703 21281,703 21293,703 21304,703 21316,703 21327,702 21339,702 21350,702 21362,702 21374,702 21385,702 21397,702 21408,702 21420,702 21431,701 21443,701 21455,701 21466,701 21478,701 21489,701 21501,701 21512,701 21524,701 21535,700 21547,700 21559,700 21570,700 21582,700 21593,700 21605,700 21616,700 21628,700 21640,699 21651,699 21663,699 21674,699 21686,699 21697,699 21709,699 21721,699 21732,699 21744,698 21755,698 21767,698 21778,698 21790,698 21802,698 21813,698 21825,698 21836,698 21848,697 21859,697 21871,697 21883,697 21894,697 21906,697 21917,697 21929,697 21940,697 21952,697 21964,696 21975,696 21987,696 21998,696 22010,696 22021,696 22033,696 22045,696 22056,696 22068,695 22079,695 22091,695 22102,695 22114,695 22126,695 22137,695 22149,695 22160,695 22172,695 22183,694 22195,694 22206,694 22218,694 22230,694 22241,694 22253,694 22264,694 22276,694 22287,693 22299,693 22311,693 22322,693 22334,693 22345,693 22357,693 22368,693 22380,693 22392,693 22403,692 22415,692 22426,692 22438,692 22449,692 22461,692 22473,692 22484,692 22496,692 22507,692 22519,691 22530,691 22542,691 22554,691 22565,691 22577,691 22588,691 22600,691 22611,691 22623,691 22635,690 22646,690 22658,690 22669,690 22681,690 22692,690 22704,690 22716,690 22727,690 22739,690 22750,689 22762,689 22773,689 22785,689 22797,689 22808,689 22820,689 22831,689 22843,689 22854,689 22866,688 22877,688 22889,688 22901,688 22912,688 22924,688 22935,688 22947,688 22958,688 22970,688 22982,688 22993,687 23005,687 23016,687 23028,687 23039,687 23051,687 23063,687 23074,687 23086,687 23097,687 23109,686 23120,686 23132,686 23144,686 23155,686 23167,686 23178,686 23190,686 23201,686 23213,686 23225,686 23236,685 23248,685 23259,685 23271,685 23282,685 23294,685 23306,685 23317,685 23329,685 23340,685 23352,685 23363,684 23375,684 23387,684 23398,684 23410,684 23421,684 23433,684 23444,684 23456,684 23468,684 23479,684 23491,683 23502,683 23514,683 23525,683 23537,683 23548,683 23560,683 23572,683 23583,683 23595,683 23606,683 23618,682 23629,682 23641,682 23653,682 23664,682 23676,682 23687,682 23699,682 23710,682 23722,682 23734,682 23745,681 23757,681 23768,681 23780,681 23791,681 23803,681 23815,681 23826,681 23838,681 23849,681 23861,681 23872,680 23884,680 23896,680 23907,680 23919,680 23930,680 23942,680 23953,680 23965,680 23977,680 23988,680 24000,680 24011,679 24023,679 24034,679 24046,679 24058,679 24069,679 24081,679 24092,679 24104,679 24115,679 24127,679 24139,678 24150,678 24162,678 24173,678 24185,678 24196,678 24208,678 24219,678 24231,678 24243,678 24254,678 24266,678 24277,677 24289,677 24300,677 24312,677 24324,677 24335,677 24347,677 24358,677 24370,677 24381,677 24393,677 24405,677 24416,676 24428,676 24439,676 24451,676 24462,676 24474,676 24486,676 24497,676 24509,676 24520,676 24532,676 24543,676 24555,675 24567,675 24578,675 24590,675 24601,675 24613,675 24624,675 24636,675 24648,675 24659,675 24671,675 24682,675 24694,674 24705,674 24717,674 24729,674 24740,674 24752,674 24763,674 24775,674 24786,674 24798,674 24810,674 24821,674 24833,674 24844,673 24856,673 24867,673 24879,673 24890,673 24902,673 24914,673 24925,673 24937,673 24948,673 24960,673 24971,673 24983,672 24995,672 25006,672 25018,672 25029,672 25041,672 25052,672 25064,672 25076,672 25087,672 25099,672 25110,672 25122,672 25133,671 25145,671 25157,671 25168,671 25180,671 25191,671 25203,671 25214,671 25226,671 25238,671 25249,671 25261,671 25272,671 25284,670 25295,670 25307,670 25319,670 25330,670 25342,670 25353,670 25365,670 25376,670 25388,670 25400,670 25411,670 25423,670 25434,669 25446,669"/>
 <text class="SVGTextShape"><tspan class="TextParagraph"><tspan class="TextPosition" x="2332" y="16020"><tspan font-family="Liberation Sans, sans-serif" font-size="353px" font-weight="400" fill="rgb(0,0,0)" stroke="none" style="white-space: pre">0</tspan></tspan></tspan></text>
 <text class="SVGTextShape"><tspan class="TextParagraph"><tspan class="TextPosition" x="4553" y="16020"><tspan font-family="Liberation Sans, sans-serif" font-size="353px" font-weight="400" fill="rgb(0,0,0)" stroke="none" style="white-space: pre">20</tspan></tspan></tspan></text>
 <text class="SVGTextShape"><tspan class="TextParagraph"><tspan class="TextPosition" x="6867" y="16020"><tspan font-family="Liberation Sans, sans-serif" font-size="353px" font-weight="400" fill="rgb(0,0,0)" stroke="none" style="white-space: pre">40</tspan></tspan></tspan></text>
 <text class="SVGTextShape"><tspan class="TextParagraph"><tspan class="TextPosition" x="9181" y="16020"><tspan font-family="Liberation Sans, sans-serif" font-size="353px" font-weight="400" fill="rgb(0,0,0)" stroke="none" style="white-space: pre">60</tspan></tspan></tspan></text>
 <text class="SVGTextShape"><tspan class="TextParagraph"><tspan class="TextPosition" x="11495" y="16020"><tspan font-family="Liberation Sans, sans-serif" font-size="353px" font-weight="400" fill="rgb(0,0,0)" stroke="none" style="white-space: pre">80</tspan></tspan></tspan></text>
 <text class="SVGTextShape"><tspan class="TextParagraph"><tspan class="TextPosition" x="13716" y="16020"><tspan font-family="Liberation Sans, sans-serif" font-size="353px" font-weight="400" fill="rgb(0,0,0)" stroke="none" style="white-space: pre">100</tspan></tspan></tspan></text>
 <text class="SVGTextShape"><tspan class="TextParagraph"><tspan class="TextPosition" x="16028" y="16020"><tspan font-family="Liberation Sans, sans-serif" font-size="353px" font-weight="400" fill="rgb(0,0,0)" stroke="none" style="white-space: pre">120</tspan></tspan></tspan></text>
 <text class="SVGTextShape"><tspan class="TextParagraph"><tspan class="TextPosition" x="18342" y="16020"><tspan font-family="Liberation Sans, sans-serif" font-size="353px" font-weight="400" fill="rgb(0,0,0)" stroke="none" style="white-space: pre">140</tspan></tspan></tspan></text>
 <text class="SVGTextShape"><tspan class="TextParagraph"><tspan class="TextPosition" x="20656" y="16020"><tspan font-family="Liberation Sans, sans-serif" font-size="353px" font-weight="400" fill="rgb(0,0,0)" stroke="none" style="white-space: pre">160</tspan></tspan></tspan></text>
 <text class="SVGTextShape"><tspan class="TextParagraph"><tspan class="TextPosition" x="22970" y="16020"><tspan font-family="Liberation Sans, sans-serif" font-size="353px" font-weight="400" fill="rgb(0,0,0)" stroke="none" style="white-space: pre">180</tspan></tspan></tspan></text>
 <text class="SVGTextShape"><tspan class="TextParagraph"><tspan class="TextPosition" x="25284" y="16020"><tspan font-family="Liberation Sans, sans-serif" font-size="353px" font-weight="400" fill="rgb(0,0,0)" stroke="none" style="white-space: pre">200</tspan></tspan></tspan></text>
 <text class="SVGTextShape"><tspan class="TextParagraph"><tspan class="TextPosition" x="1514" y="15572"><tspan font-family="Liberation Sans, sans-serif" font-size="353px" font-weight="400" fill="rgb(0,0,0)" stroke="none" style="white-space: pre">0.25</tspan></tspan></tspan></text>
 <text class="SVGTextShape"><tspan class="TextParagraph"><tspan class="TextPosition" x="1699" y="12585"><tspan font-family="Liberation Sans, sans-serif" font-size="353px" font-weight="400" fill="rgb(0,0,0)" stroke="none" style="white-space: pre">0.3</tspan></tspan></tspan></text>
 <text class="SVGTextShape"><tspan class="TextParagraph"><tspan class="TextPosition" x="1514" y="9598"><tspan font-family="Liberation Sans, sans-serif" font-size="353px" font-weight="400" fill="rgb(0,0,0)" stroke="none" style="white-space: pre">0.35</tspan></tspan></tspan></text>
 <text class="SVGTextShape"><tspan class="TextParagraph"><tspan class="TextPosition" x="1699" y="6612"><tspan font-family="Liberation Sans, sans-serif" font-size="353px" font-weight="400" fill="rgb(0,0,0)" stroke="none" style="white-space: pre">0.4</tspan></tspan></tspan></text>
 <text class="SVGTextShape"><tspan class="TextParagraph"><tspan class="TextPosition" x="1514" y="3625"><tspan font-family="Liberation Sans, sans-serif" font-size="353px" font-weight="400" fill="rgb(0,0,0)" stroke="none" style="white-space: pre">0.45</tspan></tspan></tspan></text>
 <text class="SVGTextShape"><tspan class="TextParagraph"><tspan class="TextPosition" x="1699" y="639"><tspan font-family="Liberation Sans, sans-serif" font-size="353px" font-weight="400" fill="rgb(0,0,0)" stroke="none" style="white-space: pre">0.5</tspan></tspan></tspan></text>
 <path fill="none" stroke="rgb(0,69,134)" stroke-width="80" stroke-linejoin="round" d="M 26752,7705 L 27552,7705"/>
 <path fill="none" stroke="rgb(255,66,14)" stroke-width="80" stroke-linejoin="round" d="M 26752,8203 L 27552,8203"/>
 <path fill="none" stroke="rgb(255,211,32)" stroke-width="80" stroke-linejoin="round" d="M 26752,8700 L 27552,8700"/>
 <text class="SVGTextShape"><tspan class="TextParagraph"><tspan class="TextPosition" x="27652" y="7825"><tspan font-family="Liberation Sans, sans-serif" font-size="353px" font-weight="400" fill="rgb(0,0,0)" stroke="none" style="white-space: pre">curve_1</tspan></tspan></tspan></text>
 <text class="SVGTextShape"><tspan class="TextParagraph"><tspan class="TextPosition" x="27652" y="8322"><tspan font-family="Liberation Sans, sans-serif" font-size="353px" font-weight="400" fill="rgb(0,0,0)" stroke="none" style="white-space: pre">curve_2</tspan></tspan></tspan></text>
 <text class="SVGTextShape"><tspan class="TextParagraph"><tspan class="TextPosition" x="27652" y="8820"><tspan font-family="Liberation Sans, sans-serif" font-size="353px" font-weight="400" fill="rgb(0,0,0)" stroke="none" style="white-space: pre">curve_3</tspan></tspan></tspan></text>
</svg>