<?xml version="1.0" encoding="UTF-8"?>
<!DOCTYPE svg PUBLIC "-//W3C//DTD SVG 1.1//EN" "http://www.w3.org/Graphics/SVG/1.1/DTD/svg11.dtd">
<svg width="292mm" height="164mm" viewBox="0 0 29200 16400" version="1.1" xmlns="http://www.w3.org/2000/svg" xmlns:xlink="http://www.w3.org/1999/xlink" stroke-width="28.222" stroke-linejoin="round" xml:space="preserve">
 <path fill="rgb(255,255,255)" stroke="none" d="M 14592,16421 L -13,16421 -13,-13 29197,-13 29197,16421 14592,16421 Z"/>
 <path fill="none" stroke="rgb(179,179,179)" stroke-linejoin="round" d="M 14012,15446 L 2436,15446 2436,515 25587,515 25587,15446 14012,15446 Z"/>
 <path fill="none" stroke="rgb(179,179,179)" stroke-linejoin="round" d="M 25587,15445 L 2436,15445"/>
 <path fill="none" stroke="rgb(179,179,179)" stroke-linejoin="round" d="M 25587,12956 L 2436,12956"/>
 <path fill="none" stroke="rgb(179,179,179)" stroke-linejoin="round" d="M 25587,10467 L 2436,10467"/>
 <path fill="none" stroke="rgb(179,179,179)" stroke-linejoin="round" d="M 25587,7980 L 2436,7980"/>
 <path fill="none" stroke="rgb(179,179,179)" stroke-linejoin="round" d="M 25587,5491 L 2436,5491"/>
 <path fill="none" stroke="rgb(179,179,179)" stroke-linejoin="round" d="M 25587,3002 L 2436,3002"/>
 <path fill="none" stroke="rgb(179,179,179)" stroke-linejoin="round" d="M 25587,513 L 2436,513"/>
 <path fill="none" stroke="rgb(179,179,179)" stroke-linejoin="round" d="M 2436,15595 L 2436,15445"/>
 <path fill="none" stroke="rgb(179,179,179)" stroke-linejoin="round" d="M 2436,15595 L 2436,15445"/>
 <path fill="none" stroke="rgb(179,179,179)" stroke-linejoin="round" d="M 4751,15595 L 4751,15445"/>
 <path fill="none" stroke="rgb(179,179,179)" stroke-linejoin="round" d="M 4751,15595 L 4751,15445"/>
 <path fill="none" stroke="rgb(179,179,179)" stroke-linejoin="round" d="M 7066,15595 L 7066,15445"/>
 <path fill="none" stroke="rgb(179,179,179)" stroke-linejoin="round" d="M 7066,15595 L 7066,15445"/>
 <path fill="none" stroke="rgb(179,179,179)" stroke-linejoin="round" d="M 9381,15595 L 9381,15445"/>
 <path fill="none" stroke="rgb(179,179,179)" stroke-linejoin="round" d="M 9381,15595 L 9381,15445"/>
 <path fill="none" stroke="rgb(179,179,179)" stroke-linejoin="round" d="M 11696,15595 L 11696,15445"/>
 <path fill="none" stroke="rgb(179,179,179)" stroke-linejoin="round" d="M 11696,15595 L 11696,15445"/>
 <path fill="none" stroke="rgb(179,179,179)" stroke-linejoin="round" d="M 14012,15595 L 14012,15445"/>
 <path fill="none" stroke="rgb(179,179,179)" stroke-linejoin="round" d="M 14012,15595 L 14012,15445"/>
 <path fill="none" stroke="rgb(179,179,179)" stroke-linejoin="round" d="M 16326,15595 L 16326,15445"/>
 <path fill="none" stroke="rgb(179,179,179)" stroke-linejoin="round" d="M 16326,15595 L 16326,15445"/>
 <path fill="none" stroke="rgb(179,179,179)" stroke-linejoin="round" d="M 18641,15595 L 18641,15445"/>
 <path fill="none" stroke="rgb(179,179,179)" stroke-linejoin="round" d="M 18641,15595 L 18641,15445"/>
 <path fill="none" stroke="rgb(179,179,179)" stroke-linejoin="round" d="M 20956,15595 L 20956,15445"/>
 <path fill="none" stroke="rgb(179,179,179)" stroke-linejoin="round" d="M 20956,15595 L 20956,15445"/>
 <path fill="none" stroke="rgb(179,179,179)" stroke-linejoin="round" d="M 23271,15595 L 23271,15445"/>
 <path fill="none" stroke="rgb(179,179,179)" stroke-linejoin="round" d="M 23271,15595 L 23271,15445"/>
 <path fill="none" stroke="rgb(179,179,179)" stroke-linejoin="round" d="M 25587,15595 L 25587,15445"/>
 <path fill="none" stroke="rgb(179,179,179)" stroke-linejoin="round" d="M 25587,15595 L 25587,15445"/>
 <path fill="none" stroke="rgb(179,179,179)" stroke-linejoin="round" d="M 2436,15445 L 25587,15445"/>
 <path fill="none" stroke="rgb(179,179,179)" stroke-linejoin="round" d="M 2286,15445 L 2436,15445"/>
 <path fill="none" stroke="rgb(179,179,179)" stroke-linejoin="round" d="M 2286,15445 L 2436,15445"/>
 <path fill="none" stroke="rgb(179,179,179)" stroke-linejoin="round" d="M 2286,12956 L 2436,12956"/>
 <path fill="none" stroke="rgb(179,179,179)" stroke-linejoin="round" d="M 2286,12956 L 2436,12956"/>
 <path fill="none" stroke="rgb(179,179,179)" stroke-linejoin="round" d="M 2286,10467 L 2436,10467"/>
 <path fill="none" stroke="rgb(179,179,179)" stroke-linejoin="round" d="M 2286,10467 L 2436,10467"/>
 <path fill="none" stroke="rgb(179,179,179)" stroke-linejoin="round" d="M 2286,7979 L 2436,7979"/>
 <path fill="none" stroke="rgb(179,179,179)" stroke-linejoin="round" d="M 2286,7979 L 2436,7979"/>
 <path fill="none" stroke="rgb(179,179,179)" stroke-linejoin="round" d="M 2286,5491 L 2436,5491"/>
 <path fill="none" stroke="rgb(179,179,179)" stroke-linejoin="round" d="M 2286,5491 L 2436,5491"/>
 <path fill="none" stroke="rgb(179,179,179)" stroke-linejoin="round" d="M 2286,3002 L 2436,3002"/>
 <path fill="none" stroke="rgb(179,179,179)" stroke-linejoin="round" d="M 2286,3002 L 2436,3002"/>
 <path fill="none" stroke="rgb(179,179,179)" stroke-linejoin="round" d="M 2286,513 L 2436,513"/>
 <path fill="none" stroke="rgb(179,179,179)" stroke-linejoin="round" d="M 2286,513 L 2436,513"/>
 <path fill="none" stroke="rgb(179,179,179)" stroke-linejoin="round" d="M 2436,15445 L 2436,513"/>
 <path fill="none" stroke="rgb(0,69,134)" stroke-width="80" stroke-linejoin="round" d="M 3014,1263 L 3130,1701 3246,3804 3362,3366 3477,4750 3593,4242 3709,5480 3825,4490 3940,6074 4056,5492 4172,6576 4288,5971 4403,7011 4519,5950 4635,7393 4751,6758 4866,7736 4982,7089 5098,8045 5214,6952 5330,8327 5445,7665 5561,8586 5677,7918 5793,8827 5908,7715 6024,9051 6140,8371 6256,9260 6371,8577 6487,9457 6603,8331 6719,9642 6834,8952 6950,9818 7066,9124 7182,9984 7297,8849 7413,10142 7529,9444 7645,10293 7760,9592 7876,10437 7992,9296 8108,10576 8224,9870 8339,10708 8455,10001 8571,10835 8687,9689 8802,10958 8918,10248 9034,11075 9150,10364 9265,11189 9381,10039 9497,11299 9613,10585 9728,11406 9844,10691 9960,11509 10076,10354 10191,11608 10307,10891 10423,11705 10539,10987 10654,11799 10770,10642 10886,11890 11002,11171 11118,11979 11233,11259 11349,12066 11465,10906 11581,12150 11696,11428 11812,12232 11928,11510 12044,12312 12159,11151 12275,12390 12391,11667 12507,12467 12622,11742 12738,12541 12854,11378 12970,12614 13085,11889 13201,12685 13317,11959 13433,12755 13548,11590 13664,12823 13780,12096 13896,12890 14012,12163 14127,12956 14243,11790 14359,13020 14475,12292 14590,13083 14705,12354 14821,13145 14937,11977 15052,13205 15168,12476 15284,13265 15400,12535 15515,13323 15631,12155 15747,13381 15863,12650 15978,13437 16094,12706 16210,13492 16326,12323 16441,13547 16557,12816 16673,13601 16789,12869 16905,13653 17020,12483 17136,13705 17252,12973 17368,13756 17483,13024 17599,13806 17715,12636 17831,13856 17946,13123 18062,13905 18178,13172 18294,13953 18409,12781 18525,14000 18641,13267 18757,14047 18872,13313 18988,14093 19104,12920 19220,14138 19335,13404 19451,14183 19567,13448 19683,14227 19799,13054 19914,14270 20030,13536 20146,14313 20262,13578 20377,14356 20493,13182 20609,14398 20725,13662 20840,14439 20956,13703 21072,14480 21188,13306 21303,14520 21419,13784 21535,14560 21651,13824 21766,14599 21882,13425 21998,14638 22114,13902 22229,14676 22345,13940 22461,14714 22577,13539 22693,14752 22808,14015 22924,14789 23040,14052 23156,14825 23271,13650 23387,14862 23503,14124 23619,14897 23734,14160 23850,14933 23966,13757 24082,14968 24197,14230 24313,15003 24429,14265 24545,15037 24660,13861 24776,15071 24892,14333 25008,15105 25123,14366 25239,15138 25355,13961 25471,15171 25587,14432"/>
 <text class="SVGTextShape"><tspan class="TextParagraph"><tspan class="TextPosition" x="2343" y="16013"><tspan font-family="Liberation Sans, sans-serif" font-size="353px" font-weight="400" fill="rgb(0,0,0)" stroke="none" style="white-space: pre">0</tspan></tspan></tspan></text>
 <text class="SVGTextShape"><tspan class="TextParagraph"><tspan class="TextPosition" x="4566" y="16013"><tspan font-family="Liberation Sans, sans-serif" font-size="353px" font-weight="400" fill="rgb(0,0,0)" stroke="none" style="white-space: pre">20</tspan></tspan></tspan></text>
 <text class="SVGTextShape"><tspan class="TextParagraph"><tspan class="TextPosition" x="6881" y="16013"><tspan font-family="Liberation Sans, sans-serif" font-size="353px" font-weight="400" fill="rgb(0,0,0)" stroke="none" style="white-space: pre">40</tspan></tspan></tspan></text>
 <text class="SVGTextShape"><tspan class="TextParagraph"><tspan class="TextPosition" x="9196" y="16013"><tspan font-family="Liberation Sans, sans-serif" font-size="353px" font-weight="400" fill="rgb(0,0,0)" stroke="none" style="white-space: pre">60</tspan></tspan></tspan></text>
 <text class="SVGTextShape"><tspan class="TextParagraph"><tspan class="TextPosition" x="11511" y="16013"><tspan font-family="Liberation Sans, sans-serif" font-size="353px" font-weight="400" fill="rgb(0,0,0)" stroke="none" style="white-space: pre">80</tspan></tspan></tspan></text>
 <text class="SVGTextShape"><tspan class="TextParagraph"><tspan class="TextPosition" x="13734" y="16013"><tspan font-family="Liberation Sans, sans-serif" font-size="353px" font-weight="400" fill="rgb(0,0,0)" stroke="none" style="white-space: pre">100</tspan></tspan></tspan></text>
 <text class="SVGTextShape"><tspan class="TextParagraph"><tspan class="TextPosition" x="16048" y="16013"><tspan font-family="Liberation Sans, sans-serif" font-size="353px" font-weight="400" fill="rgb(0,0,0)" stroke="none" style="white-space: pre">120</tspan></tspan></tspan></text>
 <text class="SVGTextShape"><tspan class="TextParagraph"><tspan class="TextPosition" x="18363" y="16013"><tspan font-family="Liberation Sans, sans-serif" font-size="353px" font-weight="400" fill="rgb(0,0,0)" stroke="none" style="white-space: pre">140</tspan></tspan></tspan></text>
 <text class="SVGTextShape"><tspan class="TextParagraph"><tspan class="TextPosition" x="20678" y="16013"><tspan font-family="Liberation Sans, sans-serif" font-size="353px" font-weight="400" fill="rgb(0,0,0)" stroke="none" style="white-space: pre">160</tspan></tspan></tspan></text>
 <text class="SVGTextShape"><tspan class="TextParagraph"><tspan class="TextPosition" x="22993" y="16013"><tspan font-family="Liberation Sans, sans-serif" font-size="353px" font-weight="400" fill="rgb(0,0,0)" stroke="none" style="white-space: pre">180</tspan></tspan></tspan></text>
 <text class="SVGTextShape"><tspan class="TextParagraph"><tspan class="TextPosition" x="25309" y="16013"><tspan font-family="Liberation Sans, sans-serif" font-size="353px" font-weight="400" fill="rgb(0,0,0)" stroke="none" style="white-space: pre">200</tspan></tspan></tspan></text>
 <text class="SVGTextShape"><tspan class="TextParagraph"><tspan class="TextPosition" x="572" y="15565"><tspan font-family="Liberation Sans, sans-serif" font-size="353px" font-weight="400" fill="rgb(0,0,0)" stroke="none" style="white-space: pre">0.0000001</tspan></tspan></tspan></text>
 <text class="SVGTextShape"><tspan class="TextParagraph"><tspan class="TextPosition" x="757" y="13076"><tspan font-family="Liberation Sans, sans-serif" font-size="353px" font-weight="400" fill="rgb(0,0,0)" stroke="none" style="white-space: pre">0.000001</tspan></tspan></tspan></text>
 <text class="SVGTextShape"><tspan class="TextParagraph"><tspan class="TextPosition" x="969" y="10587"><tspan font-family="Liberation Sans, sans-serif" font-size="353px" font-weight="400" fill="rgb(0,0,0)" stroke="none" style="white-space: pre">0.00001</tspan></tspan></tspan></text>
 <text class="SVGTextShape"><tspan class="TextParagraph"><tspan class="TextPosition" x="1154" y="8099"><tspan font-family="Liberation Sans, sans-serif" font-size="353px" font-weight="400" fill="rgb(0,0,0)" stroke="none" style="white-space: pre">0.0001</tspan></tspan></tspan></text>
 <text class="SVGTextShape"><tspan class="TextParagraph"><tspan class="TextPosition" x="1339" y="5611"><tspan font-family="Liberation Sans, sans-serif" font-size="353px" font-weight="400" fill="rgb(0,0,0)" stroke="none" style="white-space: pre">0.001</tspan></tspan></tspan></text>
 <text class="SVGTextShape"><tspan class="TextParagraph"><tspan class="TextPosition" x="1525" y="3122"><tspan font-family="Liberation Sans, sans-serif" font-size="353px" font-weight="400" fill="rgb(0,0,0)" stroke="none" style="white-space: pre">0.01</tspan></tspan></tspan></text>
 <text class="SVGTextShape"><tspan class="TextParagraph"><tspan class="TextPosition" x="1710" y="633"><tspan font-family="Liberation Sans, sans-serif" font-size="353px" font-weight="400" fill="rgb(0,0,0)" stroke="none" style="white-space: pre">0.1</tspan></tspan></tspan></text>
 <path fill="none" stroke="rgb(0,69,134)" stroke-width="80" stroke-linejoin="round" d="M 26567,8203 L 27367,8203"/>
 <text class="SVGTextShape"><tspan class="TextParagraph"><tspan class="TextPosition" x="27467" y="8322"><tspan font-family="Liberation Sans, sans-serif" font-size="353px" font-weight="400" fill="rgb(0,0,0)" stroke="none" style="white-space: pre">mp_delta</tspan></tspan></tspan></text>
</svg>