<?xml version="1.0" encoding="UTF-8"?>
<!DOCTYPE svg PUBLIC "-//W3C//DTD SVG 1.1//EN" "http://www.w3.org/Graphics/SVG/1.1/DTD/svg11.dtd">
<svg width="292mm" height="164mm" viewBox="0 0 29200 16400" version="1.1" xmlns="http://www.w3.org/2000/svg" xmlns:xlink="http://www.w3.org/1999/xlink" stroke-width="28.222" stroke-linejoin="round" xml:space="preserve">
 <path fill="rgb(255,255,255)" stroke="none" d="M 14592,16421 L -13,16421 -13,-13 29197,-13 29197,16421 14592,16421 Z"/>
 <path fill="none" stroke="rgb(179,179,179)" stroke-linejoin="round" d="M 13992,15451 L 2424,15451 2424,519 25560,519 25560,15451 13992,15451 Z"/>
 <path fill="none" stroke="rgb(179,179,179)" stroke-linejoin="round" d="M 25559,15450 L 2424,15450"/>
 <path fill="none" stroke="rgb(179,179,179)" stroke-linejoin="round" d="M 25559,11716 L 2424,11716"/>
 <path fill="none" stroke="rgb(179,179,179)" stroke-linejoin="round" d="M 25559,7984 L 2424,7984"/>
 <path fill="none" stroke="rgb(179,179,179)" stroke-linejoin="round" d="M 25559,4251 L 2424,4251"/>
 <path fill="none" stroke="rgb(179,179,179)" stroke-linejoin="round" d="M 25559,518 L 2424,518"/>
 <path fill="none" stroke="rgb(179,179,179)" stroke-linejoin="round" d="M 2424,15600 L 2424,15450"/>
 <path fill="none" stroke="rgb(179,179,179)" stroke-linejoin="round" d="M 2424,15600 L 2424,15450"/>
 <path fill="none" stroke="rgb(179,179,179)" stroke-linejoin="round" d="M 4737,15600 L 4737,15450"/>
 <path fill="none" stroke="rgb(179,179,179)" stroke-linejoin="round" d="M 4737,15600 L 4737,15450"/>
 <path fill="none" stroke="rgb(179,179,179)" stroke-linejoin="round" d="M 7051,15600 L 7051,15450"/>
 <path fill="none" stroke="rgb(179,179,179)" stroke-linejoin="round" d="M 7051,15600 L 7051,15450"/>
 <path fill="none" stroke="rgb(179,179,179)" stroke-linejoin="round" d="M 9365,15600 L 9365,15450"/>
 <path fill="none" stroke="rgb(179,179,179)" stroke-linejoin="round" d="M 9365,15600 L 9365,15450"/>
 <path fill="none" stroke="rgb(179,179,179)" stroke-linejoin="round" d="M 11678,15600 L 11678,15450"/>
 <path fill="none" stroke="rgb(179,179,179)" stroke-linejoin="round" d="M 11678,15600 L 11678,15450"/>
 <path fill="none" stroke="rgb(179,179,179)" stroke-linejoin="round" d="M 13992,15600 L 13992,15450"/>
 <path fill="none" stroke="rgb(179,179,179)" stroke-linejoin="round" d="M 13992,15600 L 13992,15450"/>
 <path fill="none" stroke="rgb(179,179,179)" stroke-linejoin="round" d="M 16305,15600 L 16305,15450"/>
 <path fill="none" stroke="rgb(179,179,179)" stroke-linejoin="round" d="M 16305,15600 L 16305,15450"/>
 <path fill="none" stroke="rgb(179,179,179)" stroke-linejoin="round" d="M 18618,15600 L 18618,15450"/>
 <path fill="none" stroke="rgb(179,179,179)" stroke-linejoin="round" d="M 18618,15600 L 18618,15450"/>
 <path fill="none" stroke="rgb(179,179,179)" stroke-linejoin="round" d="M 20932,15600 L 20932,15450"/>
 <path fill="none" stroke="rgb(179,179,179)" stroke-linejoin="round" d="M 20932,15600 L 20932,15450"/>
 <path fill="none" stroke="rgb(179,179,179)" stroke-linejoin="round" d="M 23246,15600 L 23246,15450"/>
 <path fill="none" stroke="rgb(179,179,179)" stroke-linejoin="round" d="M 23246,15600 L 23246,15450"/>
 <path fill="none" stroke="rgb(179,179,179)" stroke-linejoin="round" d="M 25559,15600 L 25559,15450"/>
 <path fill="none" stroke="rgb(179,179,179)" stroke-linejoin="round" d="M 25559,15600 L 25559,15450"/>
 <path fill="none" stroke="rgb(179,179,179)" stroke-linejoin="round" d="M 2424,15450 L 25559,15450"/>
 <path fill="none" stroke="rgb(179,179,179)" stroke-linejoin="round" d="M 2274,15450 L 2424,15450"/>
 <path fill="none" stroke="rgb(179,179,179)" stroke-linejoin="round" d="M 2274,15450 L 2424,15450"/>
 <path fill="none" stroke="rgb(179,179,179)" stroke-linejoin="round" d="M 2274,11716 L 2424,11716"/>
 <path fill="none" stroke="rgb(179,179,179)" stroke-linejoin="round" d="M 2274,11716 L 2424,11716"/>
 <path fill="none" stroke="rgb(179,179,179)" stroke-linejoin="round" d="M 2274,7984 L 2424,7984"/>
 <path fill="none" stroke="rgb(179,179,179)" stroke-linejoin="round" d="M 2274,7984 L 2424,7984"/>
 <path fill="none" stroke="rgb(179,179,179)" stroke-linejoin="round" d="M 2274,4251 L 2424,4251"/>
 <path fill="none" stroke="rgb(179,179,179)" stroke-linejoin="round" d="M 2274,4251 L 2424,4251"/>
 <path fill="none" stroke="rgb(179,179,179)" stroke-linejoin="round" d="M 2274,518 L 2424,518"/>
 <path fill="none" stroke="rgb(179,179,179)" stroke-linejoin="round" d="M 2274,518 L 2424,518"/>
 <path fill="none" stroke="rgb(179,179,179)" stroke-linejoin="round" d="M 2424,15450 L 2424,517"/>
 <path fill="none" stroke="rgb(255,66,14)" stroke-width="80" stroke-linejoin="round" d="M 3002,1641 L 3118,2299 3233,2844 3349,3311 3465,3718 3580,4080 3696,4405 3812,4701 3927,4972 4043,5222 4159,5454 4274,5670 4390,5873 4506,6064 4622,6244 4737,6415 4853,6577 4969,6732 5084,6880 5200,7021 5316,7156 5431,7286 5547,7410 5663,7530 5778,7646 5894,7758 6010,7866 6125,7971 6241,8072 6357,8171 6472,8265 6588,8358 6704,8448 6820,8535 6935,8621 7051,8704 7167,8785 7282,8864 7398,8941 7514,9017 7629,9091 7745,9163 7861,9233 7976,9302 8092,9370 8208,9436 8323,9501 8439,9564 8555,9627 8670,9688 8786,9748 8902,9807 9018,9865 9133,9922 9249,9978 9365,10033 9480,10087 9596,10140 9712,10192 9827,10244 9943,10294 10059,10344 10174,10393 10290,10442 10406,10489 10521,10536 10637,10583 10753,10628 10869,10673 10984,10718 11100,10762 11216,10805 11331,10848 11447,10890 11563,10931 11678,10972 11794,11013 11910,11053 12025,11092 12141,11131 12257,11170 12372,11208 12488,11246 12604,11283 12719,11320 12835,11356 12951,11393 13067,11428 13182,11463 13298,11498 13414,11533 13529,11567 13645,11601 13761,11634 13876,11667 13992,11700 14108,11732 14223,11764 14339,11796 14455,11828 14570,11859 14685,11890 14801,11920 14916,11951 15032,11981 15148,12011 15264,12040 15379,12069 15495,12098 15611,12127 15726,12155 15842,12183 15958,12211 16073,12239 16189,12267 16305,12294 16420,12321 16536,12348 16652,12374 16767,12401 16883,12427 16999,12453 17114,12478 17230,12504 17346,12529 17462,12554 17577,12579 17693,12604 17809,12629 17924,12653 18040,12677 18156,12701 18271,12725 18387,12749 18503,12772 18618,12796 18734,12819 18850,12842 18965,12865 19081,12887 19197,12910 19313,12932 19428,12954 19544,12977 19660,12998 19775,13020 19891,13042 20007,13063 20122,13085 20238,13106 20354,13127 20469,13148 20585,13169 20701,13189 20816,13210 20932,13230 21048,13250 21163,13271 21279,13291 21395,13310 21511,13330 21626,13350 21742,13369 21858,13389 21973,13408 22089,13427 22205,13446 22320,13465 22436,13484 22552,13503 22667,13522 22783,13540 22899,13559 23014,13577 23130,13595 23246,13613 23361,13631 23477,13649 23593,13667 23709,13685 23824,13702 23940,13720 24056,13737 24171,13755 24287,13772 24403,13789 24518,13806 24634,13823 24750,13840 24865,13857 24981,13873 25097,13890 25212,13907 25328,13923 25444,13939 25559,13956"/>
 <path fill="none" stroke="rgb(0,69,134)" stroke-width="80" stroke-linejoin="round" d="M 3002,518 L 3118,1175 3233,2549 3349,2765 3465,3502 3580,3672 3696,4234 3812,4234 3927,4831 4043,4951 4159,5334 4274,5438 4390,5768 4506,5768 4622,6152 4737,6235 4853,6494 4969,6570 5084,6804 5200,6804 5316,7087 5431,7150 5547,7347 5663,7406 5778,7587 5894,7587 6010,7811 6125,7863 6241,8021 6357,8069 6472,8217 6588,8217 6704,8402 6820,8445 6935,8578 7051,8619 7167,8744 7282,8744 7398,8902 7514,8940 7629,9053 7745,9089 7861,9197 7976,9197 8092,9336 8208,9368 8323,9468 8439,9499 8555,9595 8670,9595 8786,9718 8902,9747 9018,9836 9133,9864 9249,9949 9365,9949 9480,10059 9596,10086 9712,10166 9827,10191 9943,10269 10059,10269 10174,10369 10290,10393 10406,10465 10521,10489 10637,10559 10753,10559 10869,10651 10984,10673 11100,10740 11216,10761 11331,10826 11447,10826 11563,10910 11678,10931 11794,10992 11910,11012 12025,11072 12141,11072 12257,11151 12372,11170 12488,11227 12604,11245 12719,11302 12835,11302 12951,11374 13067,11392 13182,11446 13298,11463 13414,11515 13529,11515 13645,11584 13761,11600 13876,11651 13992,11667 14108,11716 14223,11716 14339,11780 14455,11796 14570,11843 14685,11859 14801,11905 14916,11905 15032,11966 15148,11980 15264,12025 15379,12040 15495,12084 15611,12084 15726,12141 15842,12155 15958,12197 16073,12211 16189,12253 16305,12253 16420,12307 16536,12321 16652,12361 16767,12374 16883,12414 16999,12414 17114,12466 17230,12478 17346,12517 17462,12529 17577,12567 17693,12567 17809,12616 17924,12629 18040,12665 18156,12677 18271,12713 18387,12713 18503,12761 18618,12772 18734,12807 18850,12819 18965,12853 19081,12853 19197,12899 19313,12910 19428,12943 19544,12954 19660,12987 19775,12987 19891,13031 20007,13042 20122,13074 20238,13084 20354,13116 20469,13116 20585,13158 20701,13168 20816,13199 20932,13210 21048,13240 21163,13240 21279,13281 21395,13290 21511,13320 21626,13330 21742,13360 21858,13360 21973,13398 22089,13408 22205,13437 22320,13446 22436,13475 22552,13475 22667,13512 22783,13521 22899,13549 23014,13558 23130,13586 23246,13586 23361,13622 23477,13631 23593,13658 23709,13667 23824,13693 23940,13693 24056,13729 24171,13737 24287,13763 24403,13772 24518,13798 24634,13798 24750,13831 24865,13840 24981,13865 25097,13873 25212,13898 25328,13898 25444,13931 25559,13939"/>
 <text class="SVGTextShape"><tspan class="TextParagraph"><tspan class="TextPosition" x="2331" y="16018"><tspan font-family="Liberation Sans, sans-serif" font-size="353px" font-weight="400" fill="rgb(0,0,0)" stroke="none" style="white-space: pre">0</tspan></tspan></tspan></text>
 <text class="SVGTextShape"><tspan class="TextParagraph"><tspan class="TextPosition" x="4552" y="16018"><tspan font-family="Liberation Sans, sans-serif" font-size="353px" font-weight="400" fill="rgb(0,0,0)" stroke="none" style="white-space: pre">20</tspan></tspan></tspan></text>
 <text class="SVGTextShape"><tspan class="TextParagraph"><tspan class="TextPosition" x="6866" y="16018"><tspan font-family="Liberation Sans, sans-serif" font-size="353px" font-weight="400" fill="rgb(0,0,0)" stroke="none" style="white-space: pre">40</tspan></tspan></tspan></text>
 <text class="SVGTextShape"><tspan class="TextParagraph"><tspan class="TextPosition" x="9180" y="16018"><tspan font-family="Liberation Sans, sans-serif" font-size="353px" font-weight="400" fill="rgb(0,0,0)" stroke="none" style="white-space: pre">60</tspan></tspan></tspan></text>
 <text class="SVGTextShape"><tspan class="TextParagraph"><tspan class="TextPosition" x="11493" y="16018"><tspan font-family="Liberation Sans, sans-serif" font-size="353px" font-weight="400" fill="rgb(0,0,0)" stroke="none" style="white-space: pre">80</tspan></tspan></tspan></text>
 <text class="SVGTextShape"><tspan class="TextParagraph"><tspan class="TextPosition" x="13714" y="16018"><tspan font-family="Liberation Sans, sans-serif" font-size="353px" font-weight="400" fill="rgb(0,0,0)" stroke="none" style="white-space: pre">100</tspan></tspan></tspan></text>
 <text class="SVGTextShape"><tspan class="TextParagraph"><tspan class="TextPosition" x="16027" y="16018"><tspan font-family="Liberation Sans, sans-serif" font-size="353px" font-weight="400" fill="rgb(0,0,0)" stroke="none" style="white-space: pre">120</tspan></tspan></tspan></text>
 <text class="SVGTextShape"><tspan class="TextParagraph"><tspan class="TextPosition" x="18340" y="16018"><tspan font-family="Liberation Sans, sans-serif" font-size="353px" font-weight="400" fill="rgb(0,0,0)" stroke="none" style="white-space: pre">140</tspan></tspan></tspan></text>
 <text class="SVGTextShape"><tspan class="TextParagraph"><tspan class="TextPosition" x="20654" y="16018"><tspan font-family="Liberation Sans, sans-serif" font-size="353px" font-weight="400" fill="rgb(0,0,0)" stroke="none" style="white-space: pre">160</tspan></tspan></tspan></text>
 <text class="SVGTextShape"><tspan class="TextParagraph"><tspan class="TextPosition" x="22968" y="16018"><tspan font-family="Liberation Sans, sans-serif" font-size="353px" font-weight="400" fill="rgb(0,0,0)" stroke="none" style="white-space: pre">180</tspan></tspan></tspan></text>
 <text class="SVGTextShape"><tspan class="TextParagraph"><tspan class="TextPosition" x="25281" y="16018"><tspan font-family="Liberation Sans, sans-serif" font-size="353px" font-weight="400" fill="rgb(0,0,0)" stroke="none" style="white-space: pre">200</tspan></tspan></tspan></text>
 <text class="SVGTextShape"><tspan class="TextParagraph"><tspan class="TextPosition" x="957" y="15570"><tspan font-family="Liberation Sans, sans-serif" font-size="353px" font-weight="400" fill="rgb(0,0,0)" stroke="none" style="white-space: pre">0.00001</tspan></tspan></tspan></text>
 <text class="SVGTextShape"><tspan class="TextParagraph"><tspan class="TextPosition" x="1142" y="11836"><tspan font-family="Liberation Sans, sans-serif" font-size="353px" font-weight="400" fill="rgb(0,0,0)" stroke="none" style="white-space: pre">0.0001</tspan></tspan></tspan></text>
 <text class="SVGTextShape"><tspan class="TextParagraph"><tspan class="TextPosition" x="1327" y="8104"><tspan font-family="Liberation Sans, sans-serif" font-size="353px" font-weight="400" fill="rgb(0,0,0)" stroke="none" style="white-space: pre">0.001</tspan></tspan></tspan></text>
 <text class="SVGTextShape"><tspan class="TextParagraph"><tspan class="TextPosition" x="1513" y="4371"><tspan font-family="Liberation Sans, sans-serif" font-size="353px" font-weight="400" fill="rgb(0,0,0)" stroke="none" style="white-space: pre">0.01</tspan></tspan></tspan></text>
 <text class="SVGTextShape"><tspan class="TextParagraph"><tspan class="TextPosition" x="1698" y="638"><tspan font-family="Liberation Sans, sans-serif" font-size="353px" font-weight="400" fill="rgb(0,0,0)" stroke="none" style="white-space: pre">0.1</tspan></tspan></tspan></text>
 <path fill="none" stroke="rgb(0,69,134)" stroke-width="80" stroke-linejoin="round" d="M 26461,7954 L 27261,7954"/>
 <path fill="none" stroke="rgb(255,66,14)" stroke-width="80" stroke-linejoin="round" d="M 26461,8451 L 27261,8451"/>
 <text class="SVGTextShape"><tspan class="TextParagraph"><tspan class="TextPosition" x="27361" y="8074"><tspan font-family="Liberation Sans, sans-serif" font-size="353px" font-weight="400" fill="rgb(0,0,0)" stroke="none" style="white-space: pre">mp_diff</tspan></tspan></tspan></text>
 <text class="SVGTextShape"><tspan class="TextParagraph"><tspan class="TextPosition" x="27361" y="8571"><tspan font-family="Liberation Sans, sans-serif" font-size="353px" font-weight="400" fill="rgb(0,0,0)" stroke="none" style="white-space: pre">extrm_diff</tspan></tspan></tspan></text>
</svg>