<?xml version="1.0" encoding="UTF-8"?>
<!DOCTYPE svg PUBLIC "-//W3C//DTD SVG 1.1//EN" "http://www.w3.org/Graphics/SVG/1.1/DTD/svg11.dtd">
<svg width="292mm" height="164mm" viewBox="0 0 29200 16400" version="1.1" xmlns="http://www.w3.org/2000/svg" xmlns:xlink="http://www.w3.org/1999/xlink" stroke-width="28.222" stroke-linejoin="round" xml:space="preserve">
 <path fill="rgb(255,255,255)" stroke="none" d="M 14592,16421 L -13,16421 -13,-13 29197,-13 29197,16421 14592,16421 Z"/>
 <path fill="none" stroke="rgb(179,179,179)" stroke-linejoin="round" d="M 13993,15453 L 2424,15453 2424,520 25561,520 25561,15453 13993,15453 Z"/>
 <path fill="none" stroke="rgb(179,179,179)" stroke-linejoin="round" d="M 25561,15452 L 2424,15452"/>
 <path fill="none" stroke="rgb(179,179,179)" stroke-linejoin="round" d="M 25561,12465 L 2424,12465"/>
 <path fill="none" stroke="rgb(179,179,179)" stroke-linejoin="round" d="M 25561,9478 L 2424,9478"/>
 <path fill="none" stroke="rgb(179,179,179)" stroke-linejoin="round" d="M 25561,6492 L 2424,6492"/>
 <path fill="none" stroke="rgb(179,179,179)" stroke-linejoin="round" d="M 25561,3505 L 2424,3505"/>
 <path fill="none" stroke="rgb(179,179,179)" stroke-linejoin="round" d="M 25561,519 L 2424,519"/>
 <path fill="none" stroke="rgb(179,179,179)" stroke-linejoin="round" d="M 2424,15602 L 2424,15452"/>
 <path fill="none" stroke="rgb(179,179,179)" stroke-linejoin="round" d="M 2424,15602 L 2424,15452"/>
 <path fill="none" stroke="rgb(179,179,179)" stroke-linejoin="round" d="M 4737,15602 L 4737,15452"/>
 <path fill="none" stroke="rgb(179,179,179)" stroke-linejoin="round" d="M 4737,15602 L 4737,15452"/>
 <path fill="none" stroke="rgb(179,179,179)" stroke-linejoin="round" d="M 7051,15602 L 7051,15452"/>
 <path fill="none" stroke="rgb(179,179,179)" stroke-linejoin="round" d="M 7051,15602 L 7051,15452"/>
 <path fill="none" stroke="rgb(179,179,179)" stroke-linejoin="round" d="M 9365,15602 L 9365,15452"/>
 <path fill="none" stroke="rgb(179,179,179)" stroke-linejoin="round" d="M 9365,15602 L 9365,15452"/>
 <path fill="none" stroke="rgb(179,179,179)" stroke-linejoin="round" d="M 11679,15602 L 11679,15452"/>
 <path fill="none" stroke="rgb(179,179,179)" stroke-linejoin="round" d="M 11679,15602 L 11679,15452"/>
 <path fill="none" stroke="rgb(179,179,179)" stroke-linejoin="round" d="M 13993,15602 L 13993,15452"/>
 <path fill="none" stroke="rgb(179,179,179)" stroke-linejoin="round" d="M 13993,15602 L 13993,15452"/>
 <path fill="none" stroke="rgb(179,179,179)" stroke-linejoin="round" d="M 16305,15602 L 16305,15452"/>
 <path fill="none" stroke="rgb(179,179,179)" stroke-linejoin="round" d="M 16305,15602 L 16305,15452"/>
 <path fill="none" stroke="rgb(179,179,179)" stroke-linejoin="round" d="M 18619,15602 L 18619,15452"/>
 <path fill="none" stroke="rgb(179,179,179)" stroke-linejoin="round" d="M 18619,15602 L 18619,15452"/>
 <path fill="none" stroke="rgb(179,179,179)" stroke-linejoin="round" d="M 20933,15602 L 20933,15452"/>
 <path fill="none" stroke="rgb(179,179,179)" stroke-linejoin="round" d="M 20933,15602 L 20933,15452"/>
 <path fill="none" stroke="rgb(179,179,179)" stroke-linejoin="round" d="M 23247,15602 L 23247,15452"/>
 <path fill="none" stroke="rgb(179,179,179)" stroke-linejoin="round" d="M 23247,15602 L 23247,15452"/>
 <path fill="none" stroke="rgb(179,179,179)" stroke-linejoin="round" d="M 25561,15602 L 25561,15452"/>
 <path fill="none" stroke="rgb(179,179,179)" stroke-linejoin="round" d="M 25561,15602 L 25561,15452"/>
 <path fill="none" stroke="rgb(179,179,179)" stroke-linejoin="round" d="M 2424,15452 L 25561,15452"/>
 <path fill="none" stroke="rgb(179,179,179)" stroke-linejoin="round" d="M 2274,15452 L 2424,15452"/>
 <path fill="none" stroke="rgb(179,179,179)" stroke-linejoin="round" d="M 2274,15452 L 2424,15452"/>
 <path fill="none" stroke="rgb(179,179,179)" stroke-linejoin="round" d="M 2274,12465 L 2424,12465"/>
 <path fill="none" stroke="rgb(179,179,179)" stroke-linejoin="round" d="M 2274,12465 L 2424,12465"/>
 <path fill="none" stroke="rgb(179,179,179)" stroke-linejoin="round" d="M 2274,9478 L 2424,9478"/>
 <path fill="none" stroke="rgb(179,179,179)" stroke-linejoin="round" d="M 2274,9478 L 2424,9478"/>
 <path fill="none" stroke="rgb(179,179,179)" stroke-linejoin="round" d="M 2274,6492 L 2424,6492"/>
 <path fill="none" stroke="rgb(179,179,179)" stroke-linejoin="round" d="M 2274,6492 L 2424,6492"/>
 <path fill="none" stroke="rgb(179,179,179)" stroke-linejoin="round" d="M 2274,3505 L 2424,3505"/>
 <path fill="none" stroke="rgb(179,179,179)" stroke-linejoin="round" d="M 2274,3505 L 2424,3505"/>
 <path fill="none" stroke="rgb(179,179,179)" stroke-linejoin="round" d="M 2274,519 L 2424,519"/>
 <path fill="none" stroke="rgb(179,179,179)" stroke-linejoin="round" d="M 2274,519 L 2424,519"/>
 <path fill="none" stroke="rgb(179,179,179)" stroke-linejoin="round" d="M 2424,15452 L 2424,519"/>
 <path fill="none" stroke="rgb(0,69,134)" stroke-width="80" stroke-linejoin="round" d="M 3002,3340 L 3118,8392 3233,5624 3349,7227 3465,4307 3580,12886 3696,3534 3812,3534 3927,3024 4043,8856 4159,2662 4275,11861 4390,2392 4506,2392 4622,2183 4737,9390 4853,2016 4969,11450 5084,1879 5200,1879 5316,1765 5431,9658 5547,1669 5663,11227 5779,1587 5894,1587 6010,1515 6126,9819 6241,1453 6357,11087 6473,1398 6588,1398 6704,1349 6820,9927 6935,1305 7051,10991 7167,1266 7282,1266 7398,1230 7514,10004 7630,1198 7745,10921 7861,1168 7977,1168 8092,1141 8208,10063 8324,1116 8439,10868 8555,1093 8671,1093 8786,1072 8902,10108 9018,1052 9134,10826 9249,1034 9365,1034 9481,1016 9596,10144 9712,1000 9828,10792 9943,985 10059,985 10175,971 10290,10174 10406,958 10522,10764 10637,945 10753,945 10869,933 10985,10199 11100,922 11216,10741 11332,912 11447,912 11563,901 11679,10220 11794,892 11910,10721 12026,883 12141,883 12257,874 12373,10238 12489,866 12604,10704 12720,858 12836,858 12951,850 13067,10253 13183,843 13298,10689 13414,836 13530,836 13645,830 13761,10267 13877,823 13993,10676 14108,817 14224,817 14340,811 14455,10279 14571,806 14686,10664 14801,800 14917,800 15033,795 15148,10290 15264,790 15380,10654 15495,785 15611,785 15727,781 15843,10300 15958,776 16074,10644 16190,772 16305,772 16421,767 16537,10308 16652,763 16768,10636 16884,759 16999,759 17115,756 17231,10316 17347,752 17462,10628 17578,748 17694,748 17809,745 17925,10323 18041,741 18156,10622 18272,738 18388,738 18503,735 18619,10330 18735,732 18850,10615 18966,729 19082,729 19198,726 19313,10336 19429,723 19545,10609 19660,720 19776,720 19892,718 20007,10341 20123,715 20239,10604 20354,712 20470,712 20586,710 20702,10346 20817,708 20933,10599 21049,705 21164,705 21280,703 21396,10351 21511,701 21627,10595 21743,698 21858,698 21974,696 22090,10355 22205,694 22321,10590 22437,692 22553,692 22668,690 22784,10359 22900,688 23015,10586 23131,686 23247,686 23362,684 23478,10363 23594,683 23709,10583 23825,681 23941,681 24057,679 24172,10367 24288,677 24404,10579 24519,676 24635,676 24751,674 24866,10370 24982,672 25098,10576 25213,671 25329,671 25445,669 25561,10373"/>
 <text class="SVGTextShape"><tspan class="TextParagraph"><tspan class="TextPosition" x="2331" y="16020"><tspan font-family="Liberation Sans, sans-serif" font-size="353px" font-weight="400" fill="rgb(0,0,0)" stroke="none" style="white-space: pre">0</tspan></tspan></tspan></text>
 <text class="SVGTextShape"><tspan class="TextParagraph"><tspan class="TextPosition" x="4552" y="16020"><tspan font-family="Liberation Sans, sans-serif" font-size="353px" font-weight="400" fill="rgb(0,0,0)" stroke="none" style="white-space: pre">20</tspan></tspan></tspan></text>
 <text class="SVGTextShape"><tspan class="TextParagraph"><tspan class="TextPosition" x="6866" y="16020"><tspan font-family="Liberation Sans, sans-serif" font-size="353px" font-weight="400" fill="rgb(0,0,0)" stroke="none" style="white-space: pre">40</tspan></tspan></tspan></text>
 <text class="SVGTextShape"><tspan class="TextParagraph"><tspan class="TextPosition" x="9180" y="16020"><tspan font-family="Liberation Sans, sans-serif" font-size="353px" font-weight="400" fill="rgb(0,0,0)" stroke="none" style="white-space: pre">60</tspan></tspan></tspan></text>
 <text class="SVGTextShape"><tspan class="TextParagraph"><tspan class="TextPosition" x="11494" y="16020"><tspan font-family="Liberation Sans, sans-serif" font-size="353px" font-weight="400" fill="rgb(0,0,0)" stroke="none" style="white-space: pre">80</tspan></tspan></tspan></text>
 <text class="SVGTextShape"><tspan class="TextParagraph"><tspan class="TextPosition" x="13715" y="16020"><tspan font-family="Liberation Sans, sans-serif" font-size="353px" font-weight="400" fill="rgb(0,0,0)" stroke="none" style="white-space: pre">100</tspan></tspan></tspan></text>
 <text class="SVGTextShape"><tspan class="TextParagraph"><tspan class="TextPosition" x="16027" y="16020"><tspan font-family="Liberation Sans, sans-serif" font-size="353px" font-weight="400" fill="rgb(0,0,0)" stroke="none" style="white-space: pre">120</tspan></tspan></tspan></text>
 <text class="SVGTextShape"><tspan class="TextParagraph"><tspan class="TextPosition" x="18341" y="16020"><tspan font-family="Liberation Sans, sans-serif" font-size="353px" font-weight="400" fill="rgb(0,0,0)" stroke="none" style="white-space: pre">140</tspan></tspan></tspan></text>
 <text class="SVGTextShape"><tspan class="TextParagraph"><tspan class="TextPosition" x="20655" y="16020"><tspan font-family="Liberation Sans, sans-serif" font-size="353px" font-weight="400" fill="rgb(0,0,0)" stroke="none" style="white-space: pre">160</tspan></tspan></tspan></text>
 <text class="SVGTextShape"><tspan class="TextParagraph"><tspan class="TextPosition" x="22969" y="16020"><tspan font-family="Liberation Sans, sans-serif" font-size="353px" font-weight="400" fill="rgb(0,0,0)" stroke="none" style="white-space: pre">180</tspan></tspan></tspan></text>
 <text class="SVGTextShape"><tspan class="TextParagraph"><tspan class="TextPosition" x="25283" y="16020"><tspan font-family="Liberation Sans, sans-serif" font-size="353px" font-weight="400" fill="rgb(0,0,0)" stroke="none" style="white-space: pre">200</tspan></tspan></tspan></text>
 <text class="SVGTextShape"><tspan class="TextParagraph"><tspan class="TextPosition" x="1513" y="15572"><tspan font-family="Liberation Sans, sans-serif" font-size="353px" font-weight="400" fill="rgb(0,0,0)" stroke="none" style="white-space: pre">0.25</tspan></tspan></tspan></text>
 <text class="SVGTextShape"><tspan class="TextParagraph"><tspan class="TextPosition" x="1698" y="12585"><tspan font-family="Liberation Sans, sans-serif" font-size="353px" font-weight="400" fill="rgb(0,0,0)" stroke="none" style="white-space: pre">0.3</tspan></tspan></tspan></text>
 <text class="SVGTextShape"><tspan class="TextParagraph"><tspan class="TextPosition" x="1513" y="9598"><tspan font-family="Liberation Sans, sans-serif" font-size="353px" font-weight="400" fill="rgb(0,0,0)" stroke="none" style="white-space: pre">0.35</tspan></tspan></tspan></text>
 <text class="SVGTextShape"><tspan class="TextParagraph"><tspan class="TextPosition" x="1698" y="6612"><tspan font-family="Liberation Sans, sans-serif" font-size="353px" font-weight="400" fill="rgb(0,0,0)" stroke="none" style="white-space: pre">0.4</tspan></tspan></tspan></text>
 <text class="SVGTextShape"><tspan class="TextParagraph"><tspan class="TextPosition" x="1513" y="3625"><tspan font-family="Liberation Sans, sans-serif" font-size="353px" font-weight="400" fill="rgb(0,0,0)" stroke="none" style="white-space: pre">0.45</tspan></tspan></tspan></text>
 <text class="SVGTextShape"><tspan class="TextParagraph"><tspan class="TextPosition" x="1698" y="639"><tspan font-family="Liberation Sans, sans-serif" font-size="353px" font-weight="400" fill="rgb(0,0,0)" stroke="none" style="white-space: pre">0.5</tspan></tspan></tspan></text>
 <path fill="none" stroke="rgb(0,69,134)" stroke-width="80" stroke-linejoin="round" d="M 25852,8203 L 26652,8203"/>
 <text class="SVGTextShape"><tspan class="TextParagraph"><tspan class="TextPosition" x="26752" y="8322"><tspan font-family="Liberation Sans, sans-serif" font-size="353px" font-weight="400" fill="rgb(0,0,0)" stroke="none" style="white-space: pre">mp_ratio (qm)</tspan></tspan></tspan></text>
</svg>