<?xml version="1.0" encoding="UTF-8"?>
<!DOCTYPE svg PUBLIC "-//W3C//DTD SVG 1.1//EN" "http://www.w3.org/Graphics/SVG/1.1/DTD/svg11.dtd">
<svg width="292mm" height="164mm" viewBox="0 0 29200 16400" version="1.1" xmlns="http://www.w3.org/2000/svg" xmlns:xlink="http://www.w3.org/1999/xlink" stroke-width="28.222" stroke-linejoin="round" xml:space="preserve">
 <path fill="rgb(255,255,255)" stroke="none" d="M 14592,16421 L -13,16421 -13,-13 29197,-13 29197,16421 14592,16421 Z"/>
 <path fill="none" stroke="rgb(179,179,179)" stroke-linejoin="round" d="M 13994,15453 L 2425,15453 2425,520 25562,520 25562,15453 13994,15453 Z"/>
 <path fill="none" stroke="rgb(179,179,179)" stroke-linejoin="round" d="M 25562,15452 L 2425,15452"/>
 <path fill="none" stroke="rgb(179,179,179)" stroke-linejoin="round" d="M 25562,12465 L 2425,12465"/>
 <path fill="none" stroke="rgb(179,179,179)" stroke-linejoin="round" d="M 25562,9478 L 2425,9478"/>
 <path fill="none" stroke="rgb(179,179,179)" stroke-linejoin="round" d="M 25562,6492 L 2425,6492"/>
 <path fill="none" stroke="rgb(179,179,179)" stroke-linejoin="round" d="M 25562,3505 L 2425,3505"/>
 <path fill="none" stroke="rgb(179,179,179)" stroke-linejoin="round" d="M 25562,519 L 2425,519"/>
 <path fill="none" stroke="rgb(179,179,179)" stroke-linejoin="round" d="M 2425,15602 L 2425,15452"/>
 <path fill="none" stroke="rgb(179,179,179)" stroke-linejoin="round" d="M 2425,15602 L 2425,15452"/>
 <path fill="none" stroke="rgb(179,179,179)" stroke-linejoin="round" d="M 4738,15602 L 4738,15452"/>
 <path fill="none" stroke="rgb(179,179,179)" stroke-linejoin="round" d="M 4738,15602 L 4738,15452"/>
 <path fill="none" stroke="rgb(179,179,179)" stroke-linejoin="round" d="M 7052,15602 L 7052,15452"/>
 <path fill="none" stroke="rgb(179,179,179)" stroke-linejoin="round" d="M 7052,15602 L 7052,15452"/>
 <path fill="none" stroke="rgb(179,179,179)" stroke-linejoin="round" d="M 9366,15602 L 9366,15452"/>
 <path fill="none" stroke="rgb(179,179,179)" stroke-linejoin="round" d="M 9366,15602 L 9366,15452"/>
 <path fill="none" stroke="rgb(179,179,179)" stroke-linejoin="round" d="M 11680,15602 L 11680,15452"/>
 <path fill="none" stroke="rgb(179,179,179)" stroke-linejoin="round" d="M 11680,15602 L 11680,15452"/>
 <path fill="none" stroke="rgb(179,179,179)" stroke-linejoin="round" d="M 13994,15602 L 13994,15452"/>
 <path fill="none" stroke="rgb(179,179,179)" stroke-linejoin="round" d="M 13994,15602 L 13994,15452"/>
 <path fill="none" stroke="rgb(179,179,179)" stroke-linejoin="round" d="M 16306,15602 L 16306,15452"/>
 <path fill="none" stroke="rgb(179,179,179)" stroke-linejoin="round" d="M 16306,15602 L 16306,15452"/>
 <path fill="none" stroke="rgb(179,179,179)" stroke-linejoin="round" d="M 18620,15602 L 18620,15452"/>
 <path fill="none" stroke="rgb(179,179,179)" stroke-linejoin="round" d="M 18620,15602 L 18620,15452"/>
 <path fill="none" stroke="rgb(179,179,179)" stroke-linejoin="round" d="M 20934,15602 L 20934,15452"/>
 <path fill="none" stroke="rgb(179,179,179)" stroke-linejoin="round" d="M 20934,15602 L 20934,15452"/>
 <path fill="none" stroke="rgb(179,179,179)" stroke-linejoin="round" d="M 23248,15602 L 23248,15452"/>
 <path fill="none" stroke="rgb(179,179,179)" stroke-linejoin="round" d="M 23248,15602 L 23248,15452"/>
 <path fill="none" stroke="rgb(179,179,179)" stroke-linejoin="round" d="M 25562,15602 L 25562,15452"/>
 <path fill="none" stroke="rgb(179,179,179)" stroke-linejoin="round" d="M 25562,15602 L 25562,15452"/>
 <path fill="none" stroke="rgb(179,179,179)" stroke-linejoin="round" d="M 2425,15452 L 25562,15452"/>
 <path fill="none" stroke="rgb(179,179,179)" stroke-linejoin="round" d="M 2275,15452 L 2425,15452"/>
 <path fill="none" stroke="rgb(179,179,179)" stroke-linejoin="round" d="M 2275,15452 L 2425,15452"/>
 <path fill="none" stroke="rgb(179,179,179)" stroke-linejoin="round" d="M 2275,12465 L 2425,12465"/>
 <path fill="none" stroke="rgb(179,179,179)" stroke-linejoin="round" d="M 2275,12465 L 2425,12465"/>
 <path fill="none" stroke="rgb(179,179,179)" stroke-linejoin="round" d="M 2275,9478 L 2425,9478"/>
 <path fill="none" stroke="rgb(179,179,179)" stroke-linejoin="round" d="M 2275,9478 L 2425,9478"/>
 <path fill="none" stroke="rgb(179,179,179)" stroke-linejoin="round" d="M 2275,6492 L 2425,6492"/>
 <path fill="none" stroke="rgb(179,179,179)" stroke-linejoin="round" d="M 2275,6492 L 2425,6492"/>
 <path fill="none" stroke="rgb(179,179,179)" stroke-linejoin="round" d="M 2275,3505 L 2425,3505"/>
 <path fill="none" stroke="rgb(179,179,179)" stroke-linejoin="round" d="M 2275,3505 L 2425,3505"/>
 <path fill="none" stroke="rgb(179,179,179)" stroke-linejoin="round" d="M 2275,519 L 2425,519"/>
 <path fill="none" stroke="rgb(179,179,179)" stroke-linejoin="round" d="M 2275,519 L 2425,519"/>
 <path fill="none" stroke="rgb(179,179,179)" stroke-linejoin="round" d="M 2425,15452 L 2425,519"/>
 <path fill="none" stroke="rgb(0,69,134)" stroke-width="80" stroke-linejoin="round" d="M 3003,3837 L 3119,8663 3234,5668 3350,7263 3466,4320 3581,12902 3697,3539 3813,3539 3928,3027 4044,8859 4160,2664 4276,11863 4391,2393 4507,2393 4623,2183 4738,9390 4854,2016 4970,11450 5085,1879 5201,1879 5317,1765 5432,9658 5548,1669 5664,11227 5780,1587 5895,1587 6011,1515 6127,9819 6242,1453 6358,11088 6474,1398 6589,1398 6705,1349 6821,9927 6936,1305 7052,10992 7168,1266 7283,1266 7399,1230 7515,10004 7631,1198 7746,10921 7862,1168 7978,1168 8093,1141 8209,10063 8325,1116 8440,10868 8556,1093 8672,1093 8787,1072 8903,10108 9019,1052 9135,10826 9250,1034 9366,1034 9482,1016 9597,10144 9713,1000 9829,10792 9944,985 10060,985 10176,971 10291,10174 10407,958 10523,10764 10638,945 10754,945 10870,933 10986,10199 11101,922 11217,10741 11333,912 11448,912 11564,901 11680,10220 11795,892 11911,10721 12027,883 12142,883 12258,874 12374,10238 12490,866 12605,10704 12721,858 12837,858 12952,850 13068,10253 13184,843 13299,10689 13415,836 13531,836 13646,830 13762,10267 13878,823 13994,10676 14109,817 14225,817 14341,811 14456,10279 14572,806 14687,10664 14802,800 14918,800 15034,795 15149,10290 15265,790 15381,10654 15496,785 15612,785 15728,781 15844,10300 15959,776 16075,10644 16191,772 16306,772 16422,767 16538,10308 16653,763 16769,10636 16885,759 17000,759 17116,756 17232,10316 17348,752 17463,10628 17579,748 17695,748 17810,745 17926,10323 18042,741 18157,10622 18273,738 18389,738 18504,735 18620,10330 18736,732 18851,10615 18967,729 19083,729 19199,726 19314,10336 19430,723 19546,10609 19661,720 19777,720 19893,718 20008,10341 20124,715 20240,10604 20355,712 20471,712 20587,710 20703,10346 20818,708 20934,10599 21050,705 21165,705 21281,703 21397,10351 21512,701 21628,10595 21744,698 21859,698 21975,696 22091,10355 22206,694 22322,10590 22438,692 22554,692 22669,690 22785,10359 22901,688 23016,10586 23132,686 23248,686 23363,684 23479,10363 23595,683 23710,10583 23826,681 23942,681 24058,679 24173,10367 24289,677 24405,10579 24520,676 24636,676 24752,674 24867,10370 24983,672 25099,10576 25214,671 25330,671 25446,669 25562,10373"/>
 <text class="SVGTextShape"><tspan class="TextParagraph"><tspan class="TextPosition" x="2332" y="16020"><tspan font-family="Liberation Sans, sans-serif" font-size="353px" font-weight="400" fill="rgb(0,0,0)" stroke="none" style="white-space: pre">0</tspan></tspan></tspan></text>
 <text class="SVGTextShape"><tspan class="TextParagraph"><tspan class="TextPosition" x="4553" y="16020"><tspan font-family="Liberation Sans, sans-serif" font-size="353px" font-weight="400" fill="rgb(0,0,0)" stroke="none" style="white-space: pre">20</tspan></tspan></tspan></text>
 <text class="SVGTextShape"><tspan class="TextParagraph"><tspan class="TextPosition" x="6867" y="16020"><tspan font-family="Liberation Sans, sans-serif" font-size="353px" font-weight="400" fill="rgb(0,0,0)" stroke="none" style="white-space: pre">40</tspan></tspan></tspan></text>
 <text class="SVGTextShape"><tspan class="TextParagraph"><tspan class="TextPosition" x="9181" y="16020"><tspan font-family="Liberation Sans, sans-serif" font-size="353px" font-weight="400" fill="rgb(0,0,0)" stroke="none" style="white-space: pre">60</tspan></tspan></tspan></text>
 <text class="SVGTextShape"><tspan class="TextParagraph"><tspan class="TextPosition" x="11495" y="16020"><tspan font-family="Liberation Sans, sans-serif" font-size="353px" font-weight="400" fill="rgb(0,0,0)" stroke="none" style="white-space: pre">80</tspan></tspan></tspan></text>
 <text class="SVGTextShape"><tspan class="TextParagraph"><tspan class="TextPosition" x="13716" y="16020"><tspan font-family="Liberation Sans, sans-serif" font-size="353px" font-weight="400" fill="rgb(0,0,0)" stroke="none" style="white-space: pre">100</tspan></tspan></tspan></text>
 <text class="SVGTextShape"><tspan class="TextParagraph"><tspan class="TextPosition" x="16028" y="16020"><tspan font-family="Liberation Sans, sans-serif" font-size="353px" font-weight="400" fill="rgb(0,0,0)" stroke="none" style="white-space: pre">120</tspan></tspan></tspan></text>
 <text class="SVGTextShape"><tspan class="TextParagraph"><tspan class="TextPosition" x="18342" y="16020"><tspan font-family="Liberation Sans, sans-serif" font-size="353px" font-weight="400" fill="rgb(0,0,0)" stroke="none" style="white-space: pre">140</tspan></tspan></tspan></text>
 <text class="SVGTextShape"><tspan class="TextParagraph"><tspan class="TextPosition" x="20656" y="16020"><tspan font-family="Liberation Sans, sans-serif" font-size="353px" font-weight="400" fill="rgb(0,0,0)" stroke="none" style="white-space: pre">160</tspan></tspan></tspan></text>
 <text class="SVGTextShape"><tspan class="TextParagraph"><tspan class="TextPosition" x="22970" y="16020"><tspan font-family="Liberation Sans, sans-serif" font-size="353px" font-weight="400" fill="rgb(0,0,0)" stroke="none" style="white-space: pre">180</tspan></tspan></tspan></text>
 <text class="SVGTextShape"><tspan class="TextParagraph"><tspan class="TextPosition" x="25284" y="16020"><tspan font-family="Liberation Sans, sans-serif" font-size="353px" font-weight="400" fill="rgb(0,0,0)" stroke="none" style="white-space: pre">200</tspan></tspan></tspan></text>
 <text class="SVGTextShape"><tspan class="TextParagraph"><tspan class="TextPosition" x="1514" y="15572"><tspan font-family="Liberation Sans, sans-serif" font-size="353px" font-weight="400" fill="rgb(0,0,0)" stroke="none" style="white-space: pre">0.25</tspan></tspan></tspan></text>
 <text class="SVGTextShape"><tspan class="TextParagraph"><tspan class="TextPosition" x="1699" y="12585"><tspan font-family="Liberation Sans, sans-serif" font-size="353px" font-weight="400" fill="rgb(0,0,0)" stroke="none" style="white-space: pre">0.3</tspan></tspan></tspan></text>
 <text class="SVGTextShape"><tspan class="TextParagraph"><tspan class="TextPosition" x="1514" y="9598"><tspan font-family="Liberation Sans, sans-serif" font-size="353px" font-weight="400" fill="rgb(0,0,0)" stroke="none" style="white-space: pre">0.35</tspan></tspan></tspan></text>
 <text class="SVGTextShape"><tspan class="TextParagraph"><tspan class="TextPosition" x="1699" y="6612"><tspan font-family="Liberation Sans, sans-serif" font-size="353px" font-weight="400" fill="rgb(0,0,0)" stroke="none" style="white-space: pre">0.4</tspan></tspan></tspan></text>
 <text class="SVGTextShape"><tspan class="TextParagraph"><tspan class="TextPosition" x="1514" y="3625"><tspan font-family="Liberation Sans, sans-serif" font-size="353px" font-weight="400" fill="rgb(0,0,0)" stroke="none" style="white-space: pre">0.45</tspan></tspan></tspan></text>
 <text class="SVGTextShape"><tspan class="TextParagraph"><tspan class="TextPosition" x="1699" y="639"><tspan font-family="Liberation Sans, sans-serif" font-size="353px" font-weight="400" fill="rgb(0,0,0)" stroke="none" style="white-space: pre">0.5</tspan></tspan></tspan></text>
 <path fill="none" stroke="rgb(0,69,134)" stroke-width="80" stroke-linejoin="round" d="M 25852,8203 L 26652,8203"/>
 <text class="SVGTextShape"><tspan class="TextParagraph"><tspan class="TextPosition" x="26752" y="8322"><tspan font-family="Liberation Sans, sans-serif" font-size="353px" font-weight="400" fill="rgb(0,0,0)" stroke="none" style="white-space: pre">mp_ratio (hm)</tspan></tspan></tspan></text>
</svg>