<?xml version="1.0" encoding="UTF-8"?>
<!DOCTYPE svg PUBLIC "-//W3C//DTD SVG 1.1//EN" "http://www.w3.org/Graphics/SVG/1.1/DTD/svg11.dtd">
<svg width="292mm" height="164mm" viewBox="0 0 29200 16400" version="1.1" xmlns="http://www.w3.org/2000/svg" xmlns:xlink="http://www.w3.org/1999/xlink" stroke-width="28.222" stroke-linejoin="round" xml:space="preserve">
 <path fill="rgb(255,255,255)" stroke="none" d="M 14592,16421 L -13,16421 -13,-13 29197,-13 29197,16421 14592,16421 Z"/>
 <path fill="none" stroke="rgb(179,179,179)" stroke-linejoin="round" d="M 13992,15451 L 2424,15451 2424,519 25560,519 25560,15451 13992,15451 Z"/>
 <path fill="none" stroke="rgb(179,179,179)" stroke-linejoin="round" d="M 25559,15450 L 2424,15450"/>
 <path fill="none" stroke="rgb(179,179,179)" stroke-linejoin="round" d="M 25559,12463 L 2424,12463"/>
 <path fill="none" stroke="rgb(179,179,179)" stroke-linejoin="round" d="M 25559,9476 L 2424,9476"/>
 <path fill="none" stroke="rgb(179,179,179)" stroke-linejoin="round" d="M 25559,6491 L 2424,6491"/>
 <path fill="none" stroke="rgb(179,179,179)" stroke-linejoin="round" d="M 25559,3504 L 2424,3504"/>
 <path fill="none" stroke="rgb(179,179,179)" stroke-linejoin="round" d="M 25559,518 L 2424,518"/>
 <path fill="none" stroke="rgb(179,179,179)" stroke-linejoin="round" d="M 2424,15600 L 2424,15450"/>
 <path fill="none" stroke="rgb(179,179,179)" stroke-linejoin="round" d="M 2424,15600 L 2424,15450"/>
 <path fill="none" stroke="rgb(179,179,179)" stroke-linejoin="round" d="M 4737,15600 L 4737,15450"/>
 <path fill="none" stroke="rgb(179,179,179)" stroke-linejoin="round" d="M 4737,15600 L 4737,15450"/>
 <path fill="none" stroke="rgb(179,179,179)" stroke-linejoin="round" d="M 7051,15600 L 7051,15450"/>
 <path fill="none" stroke="rgb(179,179,179)" stroke-linejoin="round" d="M 7051,15600 L 7051,15450"/>
 <path fill="none" stroke="rgb(179,179,179)" stroke-linejoin="round" d="M 9365,15600 L 9365,15450"/>
 <path fill="none" stroke="rgb(179,179,179)" stroke-linejoin="round" d="M 9365,15600 L 9365,15450"/>
 <path fill="none" stroke="rgb(179,179,179)" stroke-linejoin="round" d="M 11678,15600 L 11678,15450"/>
 <path fill="none" stroke="rgb(179,179,179)" stroke-linejoin="round" d="M 11678,15600 L 11678,15450"/>
 <path fill="none" stroke="rgb(179,179,179)" stroke-linejoin="round" d="M 13992,15600 L 13992,15450"/>
 <path fill="none" stroke="rgb(179,179,179)" stroke-linejoin="round" d="M 13992,15600 L 13992,15450"/>
 <path fill="none" stroke="rgb(179,179,179)" stroke-linejoin="round" d="M 16305,15600 L 16305,15450"/>
 <path fill="none" stroke="rgb(179,179,179)" stroke-linejoin="round" d="M 16305,15600 L 16305,15450"/>
 <path fill="none" stroke="rgb(179,179,179)" stroke-linejoin="round" d="M 18618,15600 L 18618,15450"/>
 <path fill="none" stroke="rgb(179,179,179)" stroke-linejoin="round" d="M 18618,15600 L 18618,15450"/>
 <path fill="none" stroke="rgb(179,179,179)" stroke-linejoin="round" d="M 20932,15600 L 20932,15450"/>
 <path fill="none" stroke="rgb(179,179,179)" stroke-linejoin="round" d="M 20932,15600 L 20932,15450"/>
 <path fill="none" stroke="rgb(179,179,179)" stroke-linejoin="round" d="M 23246,15600 L 23246,15450"/>
 <path fill="none" stroke="rgb(179,179,179)" stroke-linejoin="round" d="M 23246,15600 L 23246,15450"/>
 <path fill="none" stroke="rgb(179,179,179)" stroke-linejoin="round" d="M 25559,15600 L 25559,15450"/>
 <path fill="none" stroke="rgb(179,179,179)" stroke-linejoin="round" d="M 25559,15600 L 25559,15450"/>
 <path fill="none" stroke="rgb(179,179,179)" stroke-linejoin="round" d="M 2424,15450 L 25559,15450"/>
 <path fill="none" stroke="rgb(179,179,179)" stroke-linejoin="round" d="M 2274,15450 L 2424,15450"/>
 <path fill="none" stroke="rgb(179,179,179)" stroke-linejoin="round" d="M 2274,15450 L 2424,15450"/>
 <path fill="none" stroke="rgb(179,179,179)" stroke-linejoin="round" d="M 2274,12463 L 2424,12463"/>
 <path fill="none" stroke="rgb(179,179,179)" stroke-linejoin="round" d="M 2274,12463 L 2424,12463"/>
 <path fill="none" stroke="rgb(179,179,179)" stroke-linejoin="round" d="M 2274,9476 L 2424,9476"/>
 <path fill="none" stroke="rgb(179,179,179)" stroke-linejoin="round" d="M 2274,9476 L 2424,9476"/>
 <path fill="none" stroke="rgb(179,179,179)" stroke-linejoin="round" d="M 2274,6491 L 2424,6491"/>
 <path fill="none" stroke="rgb(179,179,179)" stroke-linejoin="round" d="M 2274,6491 L 2424,6491"/>
 <path fill="none" stroke="rgb(179,179,179)" stroke-linejoin="round" d="M 2274,3504 L 2424,3504"/>
 <path fill="none" stroke="rgb(179,179,179)" stroke-linejoin="round" d="M 2274,3504 L 2424,3504"/>
 <path fill="none" stroke="rgb(179,179,179)" stroke-linejoin="round" d="M 2274,518 L 2424,518"/>
 <path fill="none" stroke="rgb(179,179,179)" stroke-linejoin="round" d="M 2274,518 L 2424,518"/>
 <path fill="none" stroke="rgb(179,179,179)" stroke-linejoin="round" d="M 2424,15450 L 2424,518"/>
 <path fill="none" stroke="rgb(0,69,134)" stroke-width="80" stroke-linejoin="round" d="M 3002,3504 L 3118,8481 3233,5637 3349,7237 3465,4310 3580,12890 3696,3534 3812,3534 3927,3024 4043,8856 4159,2662 4274,11860 4390,2391 4506,2391 4622,2182 4737,9388 4853,2015 4969,11448 5084,1878 5200,1878 5316,1764 5431,9656 5547,1668 5663,11226 5778,1586 5894,1586 6010,1514 6125,9817 6241,1452 6357,11086 6472,1397 6588,1397 6704,1348 6820,9925 6935,1304 7051,10990 7167,1265 7282,1265 7398,1229 7514,10003 7629,1197 7745,10920 7861,1167 7976,1167 8092,1140 8208,10061 8323,1115 8439,10866 8555,1092 8670,1092 8786,1071 8902,10106 9018,1051 9133,10824 9249,1033 9365,1033 9480,1015 9596,10143 9712,999 9827,10791 9943,984 10059,984 10174,970 10290,10172 10406,957 10521,10763 10637,944 10753,944 10869,932 10984,10197 11100,921 11216,10739 11331,911 11447,911 11563,900 11678,10218 11794,891 11910,10719 12025,882 12141,882 12257,873 12372,10236 12488,865 12604,10702 12719,857 12835,857 12951,849 13067,10252 13182,842 13298,10687 13414,835 13529,835 13645,829 13761,10265 13876,822 13992,10674 14108,816 14223,816 14339,810 14455,10278 14570,805 14685,10662 14801,799 14916,799 15032,794 15148,10288 15264,789 15379,10652 15495,784 15611,784 15726,780 15842,10298 15958,775 16073,10643 16189,771 16305,771 16420,766 16536,10307 16652,762 16767,10634 16883,758 16999,758 17114,755 17230,10314 17346,751 17462,10627 17577,747 17693,747 17809,744 17924,10322 18040,740 18156,10620 18271,737 18387,737 18503,734 18618,10328 18734,731 18850,10614 18965,728 19081,728 19197,725 19313,10334 19428,722 19544,10608 19660,719 19775,719 19891,717 20007,10340 20122,714 20238,10602 20354,711 20469,711 20585,709 20701,10345 20816,707 20932,10597 21048,704 21163,704 21279,702 21395,10349 21511,700 21626,10593 21742,697 21858,697 21973,695 22089,10354 22205,693 22320,10589 22436,691 22552,691 22667,689 22783,10358 22899,687 23014,10585 23130,685 23246,685 23361,683 23477,10362 23593,682 23709,10581 23824,680 23940,680 24056,678 24171,10365 24287,676 24403,10577 24518,675 24634,675 24750,673 24865,10368 24981,671 25097,10574 25212,670 25328,670 25444,668 25559,10372"/>
 <text class="SVGTextShape"><tspan class="TextParagraph"><tspan class="TextPosition" x="2331" y="16018"><tspan font-family="Liberation Sans, sans-serif" font-size="353px" font-weight="400" fill="rgb(0,0,0)" stroke="none" style="white-space: pre">0</tspan></tspan></tspan></text>
 <text class="SVGTextShape"><tspan class="TextParagraph"><tspan class="TextPosition" x="4552" y="16018"><tspan font-family="Liberation Sans, sans-serif" font-size="353px" font-weight="400" fill="rgb(0,0,0)" stroke="none" style="white-space: pre">20</tspan></tspan></tspan></text>
 <text class="SVGTextShape"><tspan class="TextParagraph"><tspan class="TextPosition" x="6866" y="16018"><tspan font-family="Liberation Sans, sans-serif" font-size="353px" font-weight="400" fill="rgb(0,0,0)" stroke="none" style="white-space: pre">40</tspan></tspan></tspan></text>
 <text class="SVGTextShape"><tspan class="TextParagraph"><tspan class="TextPosition" x="9180" y="16018"><tspan font-family="Liberation Sans, sans-serif" font-size="353px" font-weight="400" fill="rgb(0,0,0)" stroke="none" style="white-space: pre">60</tspan></tspan></tspan></text>
 <text class="SVGTextShape"><tspan class="TextParagraph"><tspan class="TextPosition" x="11493" y="16018"><tspan font-family="Liberation Sans, sans-serif" font-size="353px" font-weight="400" fill="rgb(0,0,0)" stroke="none" style="white-space: pre">80</tspan></tspan></tspan></text>
 <text class="SVGTextShape"><tspan class="TextParagraph"><tspan class="TextPosition" x="13714" y="16018"><tspan font-family="Liberation Sans, sans-serif" font-size="353px" font-weight="400" fill="rgb(0,0,0)" stroke="none" style="white-space: pre">100</tspan></tspan></tspan></text>
 <text class="SVGTextShape"><tspan class="TextParagraph"><tspan class="TextPosition" x="16027" y="16018"><tspan font-family="Liberation Sans, sans-serif" font-size="353px" font-weight="400" fill="rgb(0,0,0)" stroke="none" style="white-space: pre">120</tspan></tspan></tspan></text>
 <text class="SVGTextShape"><tspan class="TextParagraph"><tspan class="TextPosition" x="18340" y="16018"><tspan font-family="Liberation Sans, sans-serif" font-size="353px" font-weight="400" fill="rgb(0,0,0)" stroke="none" style="white-space: pre">140</tspan></tspan></tspan></text>
 <text class="SVGTextShape"><tspan class="TextParagraph"><tspan class="TextPosition" x="20654" y="16018"><tspan font-family="Liberation Sans, sans-serif" font-size="353px" font-weight="400" fill="rgb(0,0,0)" stroke="none" style="white-space: pre">160</tspan></tspan></tspan></text>
 <text class="SVGTextShape"><tspan class="TextParagraph"><tspan class="TextPosition" x="22968" y="16018"><tspan font-family="Liberation Sans, sans-serif" font-size="353px" font-weight="400" fill="rgb(0,0,0)" stroke="none" style="white-space: pre">180</tspan></tspan></tspan></text>
 <text class="SVGTextShape"><tspan class="TextParagraph"><tspan class="TextPosition" x="25281" y="16018"><tspan font-family="Liberation Sans, sans-serif" font-size="353px" font-weight="400" fill="rgb(0,0,0)" stroke="none" style="white-space: pre">200</tspan></tspan></tspan></text>
 <text class="SVGTextShape"><tspan class="TextParagraph"><tspan class="TextPosition" x="1513" y="15570"><tspan font-family="Liberation Sans, sans-serif" font-size="353px" font-weight="400" fill="rgb(0,0,0)" stroke="none" style="white-space: pre">0.25</tspan></tspan></tspan></text>
 <text class="SVGTextShape"><tspan class="TextParagraph"><tspan class="TextPosition" x="1698" y="12583"><tspan font-family="Liberation Sans, sans-serif" font-size="353px" font-weight="400" fill="rgb(0,0,0)" stroke="none" style="white-space: pre">0.3</tspan></tspan></tspan></text>
 <text class="SVGTextShape"><tspan class="TextParagraph"><tspan class="TextPosition" x="1513" y="9596"><tspan font-family="Liberation Sans, sans-serif" font-size="353px" font-weight="400" fill="rgb(0,0,0)" stroke="none" style="white-space: pre">0.35</tspan></tspan></tspan></text>
 <text class="SVGTextShape"><tspan class="TextParagraph"><tspan class="TextPosition" x="1698" y="6611"><tspan font-family="Liberation Sans, sans-serif" font-size="353px" font-weight="400" fill="rgb(0,0,0)" stroke="none" style="white-space: pre">0.4</tspan></tspan></tspan></text>
 <text class="SVGTextShape"><tspan class="TextParagraph"><tspan class="TextPosition" x="1513" y="3624"><tspan font-family="Liberation Sans, sans-serif" font-size="353px" font-weight="400" fill="rgb(0,0,0)" stroke="none" style="white-space: pre">0.45</tspan></tspan></tspan></text>
 <text class="SVGTextShape"><tspan class="TextParagraph"><tspan class="TextPosition" x="1698" y="638"><tspan font-family="Liberation Sans, sans-serif" font-size="353px" font-weight="400" fill="rgb(0,0,0)" stroke="none" style="white-space: pre">0.5</tspan></tspan></tspan></text>
 <path fill="none" stroke="rgb(0,69,134)" stroke-width="80" stroke-linejoin="round" d="M 25852,8203 L 26652,8203"/>
 <text class="SVGTextShape"><tspan class="TextParagraph"><tspan class="TextPosition" x="26752" y="8322"><tspan font-family="Liberation Sans, sans-serif" font-size="353px" font-weight="400" fill="rgb(0,0,0)" stroke="none" style="white-space: pre">mp_ratio (am)</tspan></tspan></tspan></text>
</svg>